<svg width="215" height="152" viewBox="0 0 215 152" fill="none" xmlns="http://www.w3.org/2000/svg">
<path d="M181.472 66.2284C191.758 68.5808 200.822 74.6505 206.934 83.2799C213.046 91.9093 215.778 102.494 214.61 113.016C213.442 123.538 208.455 133.26 200.601 140.329C192.747 147.397 182.574 151.316 172.024 151.34H53.9288C40.6167 151.353 27.7745 146.402 17.8953 137.448C8.01602 128.495 1.80456 116.176 0.466717 102.885C-0.871132 89.5944 2.76007 76.2786 10.6554 65.5231C18.5508 54.7675 30.1469 47.3396 43.1928 44.6813V43.604C43.186 37.9061 44.6804 32.3077 47.5245 27.3762C50.3686 22.4446 54.4613 18.3552 59.3878 15.5224C64.3143 12.6895 69.8996 11.214 75.5775 11.2453C81.2554 11.2765 86.8242 12.8135 91.7194 15.7005C99.2528 8.23071 108.827 3.17442 119.228 1.17284C129.629 -0.828731 140.389 0.314602 150.141 4.45784C159.894 8.60107 168.201 15.5575 174.008 24.4449C179.815 33.3324 182.862 43.7503 182.76 54.3775C182.76 58.4715 182.331 62.35 181.472 66.2284Z" fill="white" fill-opacity="0.25"/>
</svg>
