<svg width="691" height="446" viewBox="0 0 691 446" fill="none" xmlns="http://www.w3.org/2000/svg">
<mask id="path-1-outside-1_13_676" maskUnits="userSpaceOnUse" x="0" y="0" width="691" height="446" fill="black">
<rect fill="white" width="691" height="446"/>
<path d="M120.221 26.4716C124.48 27.6469 127.638 30.2178 129.694 34.1843C131.75 38.0038 132.338 42.0438 131.456 46.3041C130.281 50.5644 127.711 53.7229 123.746 55.7796C119.78 57.8363 115.668 58.4239 111.409 57.5425C102.45 55.0451 93.3438 53.3556 84.091 52.4742C74.8383 51.4458 65.2184 50.7848 55.2313 50.4909C55.2313 59.3054 55.2313 68.1932 55.2313 77.1546C55.2313 86.1159 55.7453 95.0038 56.7734 103.818H85.8535C90.4064 103.818 94.1516 105.434 97.0889 108.666C100.026 111.751 101.642 115.497 101.936 119.905C101.936 122.108 101.495 124.238 100.614 126.295C99.7326 128.205 98.5576 129.894 97.0889 131.363C95.6203 132.685 93.8578 133.787 91.8017 134.669C89.8924 135.55 87.9096 135.991 85.8535 135.991H58.5358C59.2702 144.805 60.0045 153.546 60.7389 162.214C61.6201 170.881 62.6482 179.622 63.8231 188.437C64.1169 190.64 63.7497 192.697 62.7216 194.607C61.8404 196.517 60.592 198.206 58.9764 199.675C57.5078 201.144 55.7453 202.319 53.6892 203.201C51.633 203.935 49.6503 204.376 47.741 204.523C45.6848 204.67 43.6286 204.229 41.5725 203.201C39.5163 202.319 37.8273 201.218 36.5055 199.895C34.8899 198.279 33.7884 196.517 33.2009 194.607C32.6135 192.697 32.1729 190.64 31.8791 188.437C30.7042 179.328 29.6761 170.294 28.7949 161.332C27.9137 152.224 27.1059 143.042 26.3715 133.787C25.6372 125.56 25.0497 117.407 24.6091 109.327C24.3154 101.1 24.0216 92.8736 23.7279 84.6468C23.581 80.6803 23.4342 76.7138 23.2873 72.7474C23.2873 68.7809 23.2873 64.7409 23.2873 60.6275C23.2873 57.1018 23.2873 53.5025 23.2873 49.8299C23.4342 46.1572 24.0216 42.558 25.0497 39.0322C26.6653 34.3312 29.0886 30.2178 32.3197 26.692C35.6977 23.0193 39.8835 20.5219 44.877 19.1997C48.9894 18.1714 53.1751 17.8041 57.4343 18.0979C61.8404 18.3918 66.0996 18.6856 70.2119 18.9794C78.7303 19.7139 87.1019 20.6688 95.3265 21.8441C103.551 22.8724 111.849 24.4149 120.221 26.4716Z"/>
<path d="M180.601 173.893C185.007 174.334 188.312 176.096 190.515 179.181C192.718 182.12 193.746 185.352 193.599 188.877C193.599 192.403 192.351 195.782 189.854 199.014C187.504 202.099 183.906 204.009 179.059 204.743C176.269 205.184 173.405 205.404 170.467 205.404C167.53 205.404 164.813 205.404 162.316 205.404C155.56 205.404 149.024 203.935 142.709 200.997C139.625 199.528 137.055 197.618 134.998 195.268C132.942 192.917 131.18 190.346 129.711 187.555C128.389 184.617 127.361 181.605 126.627 178.52C125.892 175.288 125.452 172.13 125.305 169.045C124.277 152.151 124.864 135.036 127.067 117.701C129.27 100.366 132.722 83.0308 137.422 65.6958C138.597 61.4355 141.093 58.277 144.912 56.2203C148.731 54.0167 152.769 53.4291 157.029 54.4574C159.085 54.8981 160.921 55.7796 162.536 57.1017C164.299 58.4239 165.621 60.0399 166.502 61.9497C167.53 63.7126 168.191 65.6958 168.484 67.8994C168.778 69.9561 168.631 72.0128 168.044 74.0695C166.428 81.7087 164.886 88.8337 163.417 95.4445C162.096 102.055 160.921 108.666 159.893 115.277C158.865 121.741 157.983 128.425 157.249 135.33C156.662 142.234 156.294 149.874 156.147 158.247C156.001 162.508 156.294 166.107 157.029 169.045C157.763 171.983 159.379 173.452 161.875 173.452C164.372 173.452 167.456 173.452 171.128 173.452C174.8 173.452 177.958 173.599 180.601 173.893Z"/>
<path d="M271.757 72.527C279.688 88.9806 286.958 105.655 293.567 122.549C300.176 139.443 306.051 156.778 311.191 174.554C312.366 178.814 311.852 182.781 309.649 186.453C307.446 190.126 304.215 192.697 299.956 194.166C297.9 194.901 295.77 195.121 293.567 194.827C291.511 194.386 289.601 193.652 287.839 192.623C286.077 191.448 284.534 190.053 283.213 188.437C281.891 186.821 280.936 184.984 280.349 182.928C279.468 179.843 278.513 176.831 277.485 173.893C276.604 170.808 275.722 167.723 274.841 164.638C274.107 164.932 273.372 165.299 272.638 165.74C271.904 166.033 271.169 166.327 270.435 166.621C263.679 168.531 256.923 170.441 250.167 172.35C243.558 174.113 236.949 176.023 230.34 178.08C230.046 179.989 229.679 181.899 229.238 183.809C228.945 185.572 228.651 187.408 228.357 189.318C227.916 191.522 227.035 193.431 225.713 195.047C224.392 196.663 222.776 197.986 220.867 199.014C218.957 199.895 216.901 200.483 214.698 200.777C212.495 201.071 210.439 200.997 208.53 200.556C204.124 199.381 200.966 196.884 199.057 193.064C197.294 189.098 196.78 185.058 197.515 180.944C199.277 170.367 201.113 159.937 203.022 149.653C205.078 139.37 207.135 129.086 209.191 118.803C210.953 109.694 212.716 100.66 214.478 91.6983C216.387 82.5901 219.178 73.7757 222.85 65.2551C224.024 62.317 225.346 59.5257 226.815 56.8814C228.431 54.0902 230.707 51.8866 233.644 50.2706C239.813 46.5979 246.275 46.1572 253.031 48.9484C255.528 49.9768 257.657 51.3724 259.42 53.1353C261.329 54.8981 263.018 56.8079 264.487 58.8646C265.956 60.9213 267.204 63.1249 268.232 65.4755C269.407 67.826 270.582 70.1765 271.757 72.527ZM261.843 135.55C262.724 135.256 263.532 135.109 264.267 135.109C261.77 128.352 259.053 121.667 256.115 115.057C253.325 108.446 250.241 101.688 246.863 94.7834C244.953 101.982 243.338 109.254 242.016 116.599C240.694 123.944 239.299 131.363 237.83 138.856C237.683 139.59 237.536 140.251 237.39 140.839C237.39 141.426 237.316 142.014 237.169 142.602C241.282 141.426 245.394 140.251 249.506 139.076C253.619 137.901 257.731 136.725 261.843 135.55Z"/>
<path d="M432.439 198.353C431.852 178.374 430.75 158.615 429.134 139.076C427.519 119.39 425.389 99.6313 422.746 79.7989C422.158 75.6855 423.48 72.3066 426.711 69.6623C429.942 66.8711 433.908 64.6675 438.608 63.0515C443.454 61.4355 448.374 60.2603 453.368 59.5257C458.361 58.7912 462.4 58.4239 465.485 58.4239C471.359 58.4239 477.454 58.7177 483.77 59.3054C490.085 59.893 496.18 61.1417 502.055 63.0515C507.93 64.9613 513.29 67.7525 518.137 71.4252C523.131 75.0979 527.243 80.0193 530.474 86.1893C534.293 93.6816 536.422 101.541 536.863 109.768C537.304 117.995 535.982 125.928 532.897 133.567C530.107 140.471 526.288 146.788 521.442 152.518C516.742 158.247 511.308 163.169 505.139 167.282C498.971 171.249 492.288 174.334 485.092 176.537C478.042 178.741 470.772 179.843 463.282 179.843C463.722 186.013 463.942 192.183 463.942 198.353C464.236 202.76 462.767 206.433 459.536 209.371C456.305 212.309 452.56 213.925 448.301 214.219C446.098 214.366 444.042 213.998 442.132 213.117C440.223 212.236 438.534 211.06 437.065 209.591C435.744 208.122 434.642 206.359 433.761 204.303C432.88 202.393 432.439 200.41 432.439 198.353ZM461.519 148.111C465.191 148.111 469.009 147.67 472.975 146.788C476.94 145.76 480.686 144.291 484.21 142.381C487.882 140.471 491.187 138.121 494.124 135.33C497.208 132.539 499.705 129.307 501.614 125.634C503.524 122.108 504.699 118.582 505.139 115.057C505.727 111.384 505.359 108.005 504.038 104.92C502.863 101.688 500.733 98.8968 497.649 96.5463C494.711 94.1958 490.599 92.4329 485.312 91.2576C480.612 90.2293 475.692 89.862 470.552 90.1558C465.558 90.3027 460.711 90.5966 456.012 91.0373C457.186 100.439 458.215 109.915 459.096 119.464C459.977 128.866 460.785 138.415 461.519 148.111ZM417.018 99.411C414.962 106.022 411.657 112.486 407.104 118.803C402.551 125.12 397.117 130.776 390.802 135.77C384.633 140.765 377.877 144.805 370.534 147.89C363.337 150.975 355.994 152.665 348.503 152.959C348.503 160.01 348.503 167.062 348.503 174.113C348.65 181.165 348.797 188.216 348.944 195.268C348.944 199.822 347.328 203.568 344.097 206.506C341.013 209.444 337.341 211.06 333.082 211.354C330.879 211.501 328.75 211.134 326.693 210.252C324.784 209.371 323.095 208.122 321.626 206.506C320.305 205.037 319.203 203.348 318.322 201.438C317.441 199.381 317 197.325 317 195.268C316.706 174.554 316.559 153.987 316.559 133.567C316.706 113 316.927 92.3594 317.22 71.6456C315.752 66.9445 315.458 62.8311 316.339 59.3054C317.22 55.7796 318.836 52.8414 321.186 50.4909C323.536 47.9935 326.473 46.0103 329.998 44.5412C333.67 42.9252 337.488 41.6765 341.454 40.7951C345.566 39.7667 349.605 39.1056 353.57 38.8118C357.536 38.3711 361.208 38.0773 364.586 37.9304C372.516 37.9304 380.301 39.1791 387.938 41.6765C395.722 44.1739 402.331 48.4342 407.765 54.4574C413.346 60.6275 416.871 67.6791 418.34 75.612C419.955 83.545 419.515 91.478 417.018 99.411ZM348.503 121.227C352.175 120.933 355.994 119.905 359.959 118.142C364.071 116.232 367.89 113.881 371.415 111.09C374.94 108.299 378.024 105.214 380.668 101.835C383.311 98.3092 385.221 94.6365 386.396 90.8169C387.571 86.5566 387.35 82.5167 385.735 78.6971C384.119 74.7306 380.741 72.0863 375.601 70.7641C371.342 69.5889 366.789 69.2216 361.942 69.6623C357.095 70.103 352.909 70.6172 349.385 71.2048C349.385 71.2048 349.311 71.2783 349.164 71.4252C349.017 79.7989 348.871 88.0991 348.724 96.3259C348.724 104.553 348.65 112.853 348.503 121.227Z"/>
<path d="M552.769 105.581C550.42 99.7048 548.437 93.8285 546.821 87.9522C545.353 82.0759 544.031 76.0528 542.856 69.8827C542.121 65.4754 542.709 61.509 544.618 57.9832C546.528 54.4574 549.685 51.8866 554.091 50.2706C556.001 49.683 557.983 49.536 560.039 49.8299C562.243 50.1237 564.225 50.8582 565.988 52.0335C567.897 53.0618 569.513 54.384 570.834 55.9999C572.303 57.6159 573.258 59.4523 573.698 61.509C574.726 67.6791 575.901 73.6288 577.223 79.3582C578.692 84.9406 580.528 90.5231 582.731 96.1056C584.934 102.716 587.651 106.683 590.882 108.005C594.113 109.327 597.564 108.96 601.236 106.903C605.055 104.847 608.947 101.541 612.912 96.987C617.025 92.4329 620.917 87.6584 624.588 82.6636C628.26 77.5218 631.638 72.6004 634.722 67.8994C637.807 63.0515 640.303 59.3788 642.213 56.8814C644.563 53.9433 647.206 51.8131 650.144 50.4909C653.081 49.0219 656.459 48.7281 660.278 49.6095C663.362 50.344 666.152 52.2538 668.649 55.3389C671.146 58.277 672.247 61.4355 671.954 64.8144C671.072 72.8943 670.191 80.8272 669.31 88.6133C668.429 96.3994 667.621 104.259 666.887 112.192C666.152 119.243 665.418 126.295 664.684 133.346C663.949 140.398 663.068 147.45 662.04 154.501C660.424 167.135 656.606 177.345 650.584 185.131C644.563 192.917 637.072 198.647 628.113 202.319C619.301 205.845 609.387 207.535 598.372 207.388C587.357 207.241 576.048 205.551 564.446 202.319C560.186 201.144 557.029 198.647 554.972 194.827C552.916 191.007 552.402 186.968 553.43 182.707C553.871 180.651 554.752 178.814 556.074 177.198C557.543 175.435 559.158 174.113 560.921 173.232C562.683 172.203 564.592 171.542 566.649 171.249C568.852 170.808 570.981 170.881 573.037 171.469C577.443 173.085 582.657 174.113 588.679 174.554C594.701 174.995 600.575 174.554 606.303 173.232C612.031 171.91 617.172 169.559 621.724 166.18C626.277 162.654 629.288 157.88 630.757 151.857C631.785 146.715 632.372 141.353 632.519 135.77C632.666 130.188 633.254 124.752 634.282 119.464C632.226 122.843 629.655 126.075 626.571 129.16C623.634 132.245 620.329 134.962 616.657 137.313C612.986 139.663 609.094 141.573 604.981 143.042C601.016 144.511 596.977 145.246 592.865 145.246C587.431 145.246 582.657 144.144 578.545 141.941C574.433 139.59 570.761 136.578 567.53 132.906C564.299 129.086 561.508 124.826 559.158 120.125C556.808 115.277 554.679 110.429 552.769 105.581Z"/>
<path d="M100.834 237.797C111.115 242.351 119.486 248.742 125.949 256.969C132.558 265.049 137.404 274.083 140.489 284.073C143.573 293.916 144.968 304.273 144.674 315.144C144.381 325.868 142.618 336.152 139.387 345.994C136.303 355.25 132.191 364.064 127.05 372.438C121.91 380.664 115.888 388.23 108.985 395.135C102.082 401.893 94.3719 407.842 85.8535 412.984C77.4819 417.979 68.5964 421.872 59.1968 424.663C54.4969 425.545 50.6049 425.985 47.5207 425.985C44.5833 425.985 42.1599 425.398 40.2507 424.222C38.3414 423.047 36.7992 421.211 35.6243 418.713C34.5962 416.363 33.6415 413.204 32.7603 409.238C31.7323 397.926 30.5573 385.88 29.2355 373.099C28.0605 360.171 26.8121 347.096 25.4903 333.875C24.3154 320.653 23.067 307.578 21.7452 294.65C20.4233 281.723 19.2484 269.603 18.2203 258.291C17.9266 255.206 17.9266 251.974 18.2203 248.595C18.3672 245.216 19.0281 242.058 20.203 239.12C21.2311 236.034 22.9201 233.537 25.27 231.627C27.6199 229.571 30.7776 228.395 34.7431 228.102C46.052 227.367 57.214 227.661 68.2292 228.983C79.3912 230.158 90.2595 233.096 100.834 237.797ZM62.9419 388.965C69.8448 386.467 76.3804 382.501 82.5489 377.065C88.7174 371.483 94.0781 365.092 98.6311 357.894C103.184 350.695 106.782 342.983 109.426 334.756C112.07 326.382 113.245 318.229 112.951 310.296C112.804 302.216 110.968 294.65 107.443 287.599C104.065 280.4 98.5576 274.304 90.9204 269.309C85.1926 265.636 78.8038 263.065 71.754 261.596C64.8512 259.98 57.6546 259.393 50.1643 259.833C52.3673 281.429 54.4969 302.951 56.5531 324.399C58.7561 345.848 60.8857 367.369 62.9419 388.965Z"/>
<path d="M224.641 286.277C232.572 302.73 239.842 319.404 246.451 336.299C253.06 353.193 258.935 370.528 264.076 388.304C265.25 392.564 264.736 396.53 262.533 400.203C260.33 403.876 257.099 406.447 252.84 407.916C250.784 408.65 248.654 408.871 246.451 408.577C244.395 408.136 242.486 407.402 240.723 406.373C238.961 405.198 237.419 403.802 236.097 402.186C234.775 400.57 233.821 398.734 233.233 396.677C232.352 393.592 231.397 390.581 230.369 387.643C229.488 384.557 228.607 381.472 227.725 378.387C226.991 378.681 226.257 379.048 225.522 379.489C224.788 379.783 224.054 380.077 223.319 380.371C216.563 382.28 209.807 384.19 203.051 386.1C196.442 387.863 189.833 389.773 183.224 391.829C182.93 393.739 182.563 395.649 182.123 397.559C181.829 399.322 181.535 401.158 181.241 403.068C180.801 405.271 179.92 407.181 178.598 408.797C177.276 410.413 175.66 411.735 173.751 412.764C171.842 413.645 169.786 414.233 167.583 414.527C165.38 414.82 163.323 414.747 161.414 414.306C157.008 413.131 153.85 410.633 151.941 406.814C150.179 402.847 149.665 398.807 150.399 394.694C152.161 384.117 153.997 373.686 155.907 363.403C157.963 353.119 160.019 342.836 162.075 332.552C163.837 323.444 165.6 314.409 167.362 305.448C169.272 296.34 172.062 287.525 175.734 279.005C176.909 276.067 178.231 273.275 179.699 270.631C181.315 267.84 183.591 265.636 186.529 264.02C192.697 260.348 199.159 259.907 205.915 262.698C208.412 263.726 210.542 265.122 212.304 266.885C214.213 268.648 215.902 270.558 217.371 272.614C218.84 274.671 220.088 276.875 221.116 279.225C222.291 281.576 223.466 283.926 224.641 286.277ZM214.728 349.3C215.609 349.006 216.417 348.859 217.151 348.859C214.654 342.101 211.937 335.417 209 328.806C206.209 322.195 203.125 315.438 199.747 308.533C197.838 315.732 196.222 323.003 194.9 330.349C193.578 337.694 192.183 345.113 190.714 352.605C190.568 353.34 190.421 354.001 190.274 354.588C190.274 355.176 190.2 355.764 190.054 356.351C194.166 355.176 198.278 354.001 202.391 352.826C206.503 351.65 210.615 350.475 214.728 349.3Z"/>
<path d="M278.917 400.203C276.714 399.762 274.804 398.881 273.189 397.559C271.72 396.09 270.472 394.474 269.444 392.711C268.416 390.801 267.755 388.818 267.461 386.761C267.167 384.704 267.241 382.648 267.681 380.591C268.269 378.387 269.223 376.551 270.545 375.082C271.867 373.466 273.409 372.144 275.172 371.115C277.081 370.087 279.064 369.5 281.12 369.353C283.176 369.059 285.232 369.132 287.288 369.573C289.344 370.161 291.768 370.748 294.558 371.336C297.349 371.924 300.139 372.291 302.93 372.438C305.867 372.585 308.584 372.364 311.081 371.777C313.725 371.042 315.928 369.72 317.69 367.81C319.159 366.047 319.82 364.284 319.673 362.521C319.526 360.759 318.939 359.143 317.91 357.673C316.882 356.058 315.561 354.662 313.945 353.487C312.476 352.165 311.081 350.989 309.759 349.961C306.381 347.463 302.71 344.893 298.744 342.248C294.925 339.457 291.18 336.519 287.509 333.434C283.837 330.349 280.532 327.117 277.595 323.738C274.804 320.212 272.748 316.466 271.426 312.5C269.223 305.889 268.562 299.719 269.444 293.989C270.472 288.113 272.601 282.824 275.832 278.123C279.064 273.275 283.176 268.942 288.169 265.122C293.31 261.302 298.744 258.144 304.472 255.647C310.347 253.002 316.295 251.019 322.317 249.697C328.485 248.375 334.286 247.787 339.721 247.934C344.127 248.081 347.798 249.77 350.736 253.002C353.673 256.087 355.289 259.76 355.582 264.02C355.582 266.224 355.142 268.281 354.261 270.19C353.379 271.953 352.204 273.569 350.736 275.038C349.267 276.36 347.578 277.462 345.669 278.344C343.759 279.225 341.777 279.739 339.721 279.886C335.608 280.18 331.422 280.841 327.163 281.869C323.051 282.898 319.232 284.147 315.707 285.616C312.183 287.085 309.172 288.848 306.675 290.904C304.178 292.814 302.563 294.944 301.828 297.295C301.241 299.498 301.681 301.849 303.15 304.346C304.619 306.844 307.556 309.341 311.962 311.839C314.9 313.895 318.351 316.319 322.317 319.11C326.282 321.755 330.174 324.766 333.993 328.145C337.811 331.377 341.336 334.903 344.567 338.723C347.798 342.395 350.222 346.288 351.837 350.402C353.6 354.956 354.261 359.583 353.82 364.284C353.526 368.985 352.351 373.466 350.295 377.726C347.211 384.337 343.025 389.552 337.738 393.372C332.597 397.045 326.796 399.689 320.334 401.305C314.018 402.774 307.262 403.362 300.066 403.068C292.869 402.774 285.82 401.819 278.917 400.203Z"/>
<path d="M381.786 421.358C379.437 421.505 377.307 421.137 375.398 420.256C373.488 419.374 371.873 418.199 370.551 416.73C369.229 415.114 368.128 413.351 367.246 411.441C366.512 409.532 366.071 407.548 365.925 405.492C363.868 383.896 362.326 362.375 361.298 340.926C360.27 319.331 359.683 297.662 359.536 275.92C359.536 273.716 359.903 271.659 360.637 269.75C361.519 267.84 362.693 266.224 364.162 264.902C365.631 263.433 367.32 262.257 369.229 261.376C371.138 260.495 373.121 260.054 375.177 260.054C377.38 259.907 379.437 260.274 381.346 261.156C383.255 262.037 384.871 263.212 386.193 264.681C387.661 266.15 388.836 267.913 389.717 269.97C390.599 271.88 391.039 273.863 391.039 275.92C391.186 294.43 391.627 312.94 392.361 331.451C400.733 330.275 408.957 329.1 417.035 327.925C425.26 326.603 433.484 325.354 441.709 324.179C442.003 316.393 442.37 308.753 442.811 301.261C443.398 293.622 444.059 285.909 444.793 278.123C445.087 273.569 446.629 269.823 449.42 266.885C452.21 263.947 455.955 262.404 460.655 262.257C462.564 262.11 464.474 262.478 466.383 263.359C468.439 264.241 470.202 265.416 471.67 266.885C473.286 268.354 474.534 270.117 475.415 272.174C476.297 274.083 476.664 276.067 476.517 278.123C474.755 300.453 473.433 322.783 472.551 345.113C471.817 367.296 471.67 389.626 472.111 412.103C472.111 416.51 470.495 420.182 467.264 423.121C464.033 426.059 460.288 427.675 456.029 427.969C453.826 428.115 451.769 427.748 449.86 426.867C447.951 425.985 446.262 424.81 444.793 423.341C443.325 421.872 442.15 420.109 441.268 418.052C440.534 416.142 440.167 414.159 440.167 412.103C440.02 402.701 439.947 393.372 439.947 384.117C439.947 374.862 440.093 365.606 440.387 356.351C432.75 357.527 425.113 358.702 417.476 359.877C409.838 360.905 402.128 362.007 394.344 363.182C395.225 377.286 396.326 391.389 397.648 405.492C397.795 407.695 397.428 409.752 396.547 411.662C395.666 413.572 394.417 415.261 392.802 416.73C391.333 418.052 389.57 419.154 387.514 420.036C385.605 420.917 383.696 421.358 381.786 421.358Z"/>
</mask>
<path d="M120.221 26.4716C124.48 27.6469 127.638 30.2178 129.694 34.1843C131.75 38.0038 132.338 42.0438 131.456 46.3041C130.281 50.5644 127.711 53.7229 123.746 55.7796C119.78 57.8363 115.668 58.4239 111.409 57.5425C102.45 55.0451 93.3438 53.3556 84.091 52.4742C74.8383 51.4458 65.2184 50.7848 55.2313 50.4909C55.2313 59.3054 55.2313 68.1932 55.2313 77.1546C55.2313 86.1159 55.7453 95.0038 56.7734 103.818H85.8535C90.4064 103.818 94.1516 105.434 97.0889 108.666C100.026 111.751 101.642 115.497 101.936 119.905C101.936 122.108 101.495 124.238 100.614 126.295C99.7326 128.205 98.5576 129.894 97.0889 131.363C95.6203 132.685 93.8578 133.787 91.8017 134.669C89.8924 135.55 87.9096 135.991 85.8535 135.991H58.5358C59.2702 144.805 60.0045 153.546 60.7389 162.214C61.6201 170.881 62.6482 179.622 63.8231 188.437C64.1169 190.64 63.7497 192.697 62.7216 194.607C61.8404 196.517 60.592 198.206 58.9764 199.675C57.5078 201.144 55.7453 202.319 53.6892 203.201C51.633 203.935 49.6503 204.376 47.741 204.523C45.6848 204.67 43.6286 204.229 41.5725 203.201C39.5163 202.319 37.8273 201.218 36.5055 199.895C34.8899 198.279 33.7884 196.517 33.2009 194.607C32.6135 192.697 32.1729 190.64 31.8791 188.437C30.7042 179.328 29.6761 170.294 28.7949 161.332C27.9137 152.224 27.1059 143.042 26.3715 133.787C25.6372 125.56 25.0497 117.407 24.6091 109.327C24.3154 101.1 24.0216 92.8736 23.7279 84.6468C23.581 80.6803 23.4342 76.7138 23.2873 72.7474C23.2873 68.7809 23.2873 64.7409 23.2873 60.6275C23.2873 57.1018 23.2873 53.5025 23.2873 49.8299C23.4342 46.1572 24.0216 42.558 25.0497 39.0322C26.6653 34.3312 29.0886 30.2178 32.3197 26.692C35.6977 23.0193 39.8835 20.5219 44.877 19.1997C48.9894 18.1714 53.1751 17.8041 57.4343 18.0979C61.8404 18.3918 66.0996 18.6856 70.2119 18.9794C78.7303 19.7139 87.1019 20.6688 95.3265 21.8441C103.551 22.8724 111.849 24.4149 120.221 26.4716Z" fill="url(#paint0_linear_13_676)"/>
<path d="M180.601 173.893C185.007 174.334 188.312 176.096 190.515 179.181C192.718 182.12 193.746 185.352 193.599 188.877C193.599 192.403 192.351 195.782 189.854 199.014C187.504 202.099 183.906 204.009 179.059 204.743C176.269 205.184 173.405 205.404 170.467 205.404C167.53 205.404 164.813 205.404 162.316 205.404C155.56 205.404 149.024 203.935 142.709 200.997C139.625 199.528 137.055 197.618 134.998 195.268C132.942 192.917 131.18 190.346 129.711 187.555C128.389 184.617 127.361 181.605 126.627 178.52C125.892 175.288 125.452 172.13 125.305 169.045C124.277 152.151 124.864 135.036 127.067 117.701C129.27 100.366 132.722 83.0308 137.422 65.6958C138.597 61.4355 141.093 58.277 144.912 56.2203C148.731 54.0167 152.769 53.4291 157.029 54.4574C159.085 54.8981 160.921 55.7796 162.536 57.1017C164.299 58.4239 165.621 60.0399 166.502 61.9497C167.53 63.7126 168.191 65.6958 168.484 67.8994C168.778 69.9561 168.631 72.0128 168.044 74.0695C166.428 81.7087 164.886 88.8337 163.417 95.4445C162.096 102.055 160.921 108.666 159.893 115.277C158.865 121.741 157.983 128.425 157.249 135.33C156.662 142.234 156.294 149.874 156.147 158.247C156.001 162.508 156.294 166.107 157.029 169.045C157.763 171.983 159.379 173.452 161.875 173.452C164.372 173.452 167.456 173.452 171.128 173.452C174.8 173.452 177.958 173.599 180.601 173.893Z" fill="url(#paint1_linear_13_676)"/>
<path d="M271.757 72.527C279.688 88.9806 286.958 105.655 293.567 122.549C300.176 139.443 306.051 156.778 311.191 174.554C312.366 178.814 311.852 182.781 309.649 186.453C307.446 190.126 304.215 192.697 299.956 194.166C297.9 194.901 295.77 195.121 293.567 194.827C291.511 194.386 289.601 193.652 287.839 192.623C286.077 191.448 284.534 190.053 283.213 188.437C281.891 186.821 280.936 184.984 280.349 182.928C279.468 179.843 278.513 176.831 277.485 173.893C276.604 170.808 275.722 167.723 274.841 164.638C274.107 164.932 273.372 165.299 272.638 165.74C271.904 166.033 271.169 166.327 270.435 166.621C263.679 168.531 256.923 170.441 250.167 172.35C243.558 174.113 236.949 176.023 230.34 178.08C230.046 179.989 229.679 181.899 229.238 183.809C228.945 185.572 228.651 187.408 228.357 189.318C227.916 191.522 227.035 193.431 225.713 195.047C224.392 196.663 222.776 197.986 220.867 199.014C218.957 199.895 216.901 200.483 214.698 200.777C212.495 201.071 210.439 200.997 208.53 200.556C204.124 199.381 200.966 196.884 199.057 193.064C197.294 189.098 196.78 185.058 197.515 180.944C199.277 170.367 201.113 159.937 203.022 149.653C205.078 139.37 207.135 129.086 209.191 118.803C210.953 109.694 212.716 100.66 214.478 91.6983C216.387 82.5901 219.178 73.7757 222.85 65.2551C224.024 62.317 225.346 59.5257 226.815 56.8814C228.431 54.0902 230.707 51.8866 233.644 50.2706C239.813 46.5979 246.275 46.1572 253.031 48.9484C255.528 49.9768 257.657 51.3724 259.42 53.1353C261.329 54.8981 263.018 56.8079 264.487 58.8646C265.956 60.9213 267.204 63.1249 268.232 65.4755C269.407 67.826 270.582 70.1765 271.757 72.527ZM261.843 135.55C262.724 135.256 263.532 135.109 264.267 135.109C261.77 128.352 259.053 121.667 256.115 115.057C253.325 108.446 250.241 101.688 246.863 94.7834C244.953 101.982 243.338 109.254 242.016 116.599C240.694 123.944 239.299 131.363 237.83 138.856C237.683 139.59 237.536 140.251 237.39 140.839C237.39 141.426 237.316 142.014 237.169 142.602C241.282 141.426 245.394 140.251 249.506 139.076C253.619 137.901 257.731 136.725 261.843 135.55Z" fill="url(#paint2_linear_13_676)"/>
<path d="M432.439 198.353C431.852 178.374 430.75 158.615 429.134 139.076C427.519 119.39 425.389 99.6313 422.746 79.7989C422.158 75.6855 423.48 72.3066 426.711 69.6623C429.942 66.8711 433.908 64.6675 438.608 63.0515C443.454 61.4355 448.374 60.2603 453.368 59.5257C458.361 58.7912 462.4 58.4239 465.485 58.4239C471.359 58.4239 477.454 58.7177 483.77 59.3054C490.085 59.893 496.18 61.1417 502.055 63.0515C507.93 64.9613 513.29 67.7525 518.137 71.4252C523.131 75.0979 527.243 80.0193 530.474 86.1893C534.293 93.6816 536.422 101.541 536.863 109.768C537.304 117.995 535.982 125.928 532.897 133.567C530.107 140.471 526.288 146.788 521.442 152.518C516.742 158.247 511.308 163.169 505.139 167.282C498.971 171.249 492.288 174.334 485.092 176.537C478.042 178.741 470.772 179.843 463.282 179.843C463.722 186.013 463.942 192.183 463.942 198.353C464.236 202.76 462.767 206.433 459.536 209.371C456.305 212.309 452.56 213.925 448.301 214.219C446.098 214.366 444.042 213.998 442.132 213.117C440.223 212.236 438.534 211.06 437.065 209.591C435.744 208.122 434.642 206.359 433.761 204.303C432.88 202.393 432.439 200.41 432.439 198.353ZM461.519 148.111C465.191 148.111 469.009 147.67 472.975 146.788C476.94 145.76 480.686 144.291 484.21 142.381C487.882 140.471 491.187 138.121 494.124 135.33C497.208 132.539 499.705 129.307 501.614 125.634C503.524 122.108 504.699 118.582 505.139 115.057C505.727 111.384 505.359 108.005 504.038 104.92C502.863 101.688 500.733 98.8968 497.649 96.5463C494.711 94.1958 490.599 92.4329 485.312 91.2576C480.612 90.2293 475.692 89.862 470.552 90.1558C465.558 90.3027 460.711 90.5966 456.012 91.0373C457.186 100.439 458.215 109.915 459.096 119.464C459.977 128.866 460.785 138.415 461.519 148.111ZM417.018 99.411C414.962 106.022 411.657 112.486 407.104 118.803C402.551 125.12 397.117 130.776 390.802 135.77C384.633 140.765 377.877 144.805 370.534 147.89C363.337 150.975 355.994 152.665 348.503 152.959C348.503 160.01 348.503 167.062 348.503 174.113C348.65 181.165 348.797 188.216 348.944 195.268C348.944 199.822 347.328 203.568 344.097 206.506C341.013 209.444 337.341 211.06 333.082 211.354C330.879 211.501 328.75 211.134 326.693 210.252C324.784 209.371 323.095 208.122 321.626 206.506C320.305 205.037 319.203 203.348 318.322 201.438C317.441 199.381 317 197.325 317 195.268C316.706 174.554 316.559 153.987 316.559 133.567C316.706 113 316.927 92.3594 317.22 71.6456C315.752 66.9445 315.458 62.8311 316.339 59.3054C317.22 55.7796 318.836 52.8414 321.186 50.4909C323.536 47.9935 326.473 46.0103 329.998 44.5412C333.67 42.9252 337.488 41.6765 341.454 40.7951C345.566 39.7667 349.605 39.1056 353.57 38.8118C357.536 38.3711 361.208 38.0773 364.586 37.9304C372.516 37.9304 380.301 39.1791 387.938 41.6765C395.722 44.1739 402.331 48.4342 407.765 54.4574C413.346 60.6275 416.871 67.6791 418.34 75.612C419.955 83.545 419.515 91.478 417.018 99.411ZM348.503 121.227C352.175 120.933 355.994 119.905 359.959 118.142C364.071 116.232 367.89 113.881 371.415 111.09C374.94 108.299 378.024 105.214 380.668 101.835C383.311 98.3092 385.221 94.6365 386.396 90.8169C387.571 86.5566 387.35 82.5167 385.735 78.6971C384.119 74.7306 380.741 72.0863 375.601 70.7641C371.342 69.5889 366.789 69.2216 361.942 69.6623C357.095 70.103 352.909 70.6172 349.385 71.2048C349.385 71.2048 349.311 71.2783 349.164 71.4252C349.017 79.7989 348.871 88.0991 348.724 96.3259C348.724 104.553 348.65 112.853 348.503 121.227Z" fill="url(#paint3_linear_13_676)"/>
<path d="M552.769 105.581C550.42 99.7048 548.437 93.8285 546.821 87.9522C545.353 82.0759 544.031 76.0528 542.856 69.8827C542.121 65.4754 542.709 61.509 544.618 57.9832C546.528 54.4574 549.685 51.8866 554.091 50.2706C556.001 49.683 557.983 49.536 560.039 49.8299C562.243 50.1237 564.225 50.8582 565.988 52.0335C567.897 53.0618 569.513 54.384 570.834 55.9999C572.303 57.6159 573.258 59.4523 573.698 61.509C574.726 67.6791 575.901 73.6288 577.223 79.3582C578.692 84.9406 580.528 90.5231 582.731 96.1056C584.934 102.716 587.651 106.683 590.882 108.005C594.113 109.327 597.564 108.96 601.236 106.903C605.055 104.847 608.947 101.541 612.912 96.987C617.025 92.4329 620.917 87.6584 624.588 82.6636C628.26 77.5218 631.638 72.6004 634.722 67.8994C637.807 63.0515 640.303 59.3788 642.213 56.8814C644.563 53.9433 647.206 51.8131 650.144 50.4909C653.081 49.0219 656.459 48.7281 660.278 49.6095C663.362 50.344 666.152 52.2538 668.649 55.3389C671.146 58.277 672.247 61.4355 671.954 64.8144C671.072 72.8943 670.191 80.8272 669.31 88.6133C668.429 96.3994 667.621 104.259 666.887 112.192C666.152 119.243 665.418 126.295 664.684 133.346C663.949 140.398 663.068 147.45 662.04 154.501C660.424 167.135 656.606 177.345 650.584 185.131C644.563 192.917 637.072 198.647 628.113 202.319C619.301 205.845 609.387 207.535 598.372 207.388C587.357 207.241 576.048 205.551 564.446 202.319C560.186 201.144 557.029 198.647 554.972 194.827C552.916 191.007 552.402 186.968 553.43 182.707C553.871 180.651 554.752 178.814 556.074 177.198C557.543 175.435 559.158 174.113 560.921 173.232C562.683 172.203 564.592 171.542 566.649 171.249C568.852 170.808 570.981 170.881 573.037 171.469C577.443 173.085 582.657 174.113 588.679 174.554C594.701 174.995 600.575 174.554 606.303 173.232C612.031 171.91 617.172 169.559 621.724 166.18C626.277 162.654 629.288 157.88 630.757 151.857C631.785 146.715 632.372 141.353 632.519 135.77C632.666 130.188 633.254 124.752 634.282 119.464C632.226 122.843 629.655 126.075 626.571 129.16C623.634 132.245 620.329 134.962 616.657 137.313C612.986 139.663 609.094 141.573 604.981 143.042C601.016 144.511 596.977 145.246 592.865 145.246C587.431 145.246 582.657 144.144 578.545 141.941C574.433 139.59 570.761 136.578 567.53 132.906C564.299 129.086 561.508 124.826 559.158 120.125C556.808 115.277 554.679 110.429 552.769 105.581Z" fill="url(#paint4_linear_13_676)"/>
<path d="M100.834 237.797C111.115 242.351 119.486 248.742 125.949 256.969C132.558 265.049 137.404 274.083 140.489 284.073C143.573 293.916 144.968 304.273 144.674 315.144C144.381 325.868 142.618 336.152 139.387 345.994C136.303 355.25 132.191 364.064 127.05 372.438C121.91 380.664 115.888 388.23 108.985 395.135C102.082 401.893 94.3719 407.842 85.8535 412.984C77.4819 417.979 68.5964 421.872 59.1968 424.663C54.4969 425.545 50.6049 425.985 47.5207 425.985C44.5833 425.985 42.1599 425.398 40.2507 424.222C38.3414 423.047 36.7992 421.211 35.6243 418.713C34.5962 416.363 33.6415 413.204 32.7603 409.238C31.7323 397.926 30.5573 385.88 29.2355 373.099C28.0605 360.171 26.8121 347.096 25.4903 333.875C24.3154 320.653 23.067 307.578 21.7452 294.65C20.4233 281.723 19.2484 269.603 18.2203 258.291C17.9266 255.206 17.9266 251.974 18.2203 248.595C18.3672 245.216 19.0281 242.058 20.203 239.12C21.2311 236.034 22.9201 233.537 25.27 231.627C27.6199 229.571 30.7776 228.395 34.7431 228.102C46.052 227.367 57.214 227.661 68.2292 228.983C79.3912 230.158 90.2595 233.096 100.834 237.797ZM62.9419 388.965C69.8448 386.467 76.3804 382.501 82.5489 377.065C88.7174 371.483 94.0781 365.092 98.6311 357.894C103.184 350.695 106.782 342.983 109.426 334.756C112.07 326.382 113.245 318.229 112.951 310.296C112.804 302.216 110.968 294.65 107.443 287.599C104.065 280.4 98.5576 274.304 90.9204 269.309C85.1926 265.636 78.8038 263.065 71.754 261.596C64.8512 259.98 57.6546 259.393 50.1643 259.833C52.3673 281.429 54.4969 302.951 56.5531 324.399C58.7561 345.848 60.8857 367.369 62.9419 388.965Z" fill="url(#paint5_linear_13_676)"/>
<path d="M224.641 286.277C232.572 302.73 239.842 319.404 246.451 336.299C253.06 353.193 258.935 370.528 264.076 388.304C265.25 392.564 264.736 396.53 262.533 400.203C260.33 403.876 257.099 406.447 252.84 407.916C250.784 408.65 248.654 408.871 246.451 408.577C244.395 408.136 242.486 407.402 240.723 406.373C238.961 405.198 237.419 403.802 236.097 402.186C234.775 400.57 233.821 398.734 233.233 396.677C232.352 393.592 231.397 390.581 230.369 387.643C229.488 384.557 228.607 381.472 227.725 378.387C226.991 378.681 226.257 379.048 225.522 379.489C224.788 379.783 224.054 380.077 223.319 380.371C216.563 382.28 209.807 384.19 203.051 386.1C196.442 387.863 189.833 389.773 183.224 391.829C182.93 393.739 182.563 395.649 182.123 397.559C181.829 399.322 181.535 401.158 181.241 403.068C180.801 405.271 179.92 407.181 178.598 408.797C177.276 410.413 175.66 411.735 173.751 412.764C171.842 413.645 169.786 414.233 167.583 414.527C165.38 414.82 163.323 414.747 161.414 414.306C157.008 413.131 153.85 410.633 151.941 406.814C150.179 402.847 149.665 398.807 150.399 394.694C152.161 384.117 153.997 373.686 155.907 363.403C157.963 353.119 160.019 342.836 162.075 332.552C163.837 323.444 165.6 314.409 167.362 305.448C169.272 296.34 172.062 287.525 175.734 279.005C176.909 276.067 178.231 273.275 179.699 270.631C181.315 267.84 183.591 265.636 186.529 264.02C192.697 260.348 199.159 259.907 205.915 262.698C208.412 263.726 210.542 265.122 212.304 266.885C214.213 268.648 215.902 270.558 217.371 272.614C218.84 274.671 220.088 276.875 221.116 279.225C222.291 281.576 223.466 283.926 224.641 286.277ZM214.728 349.3C215.609 349.006 216.417 348.859 217.151 348.859C214.654 342.101 211.937 335.417 209 328.806C206.209 322.195 203.125 315.438 199.747 308.533C197.838 315.732 196.222 323.003 194.9 330.349C193.578 337.694 192.183 345.113 190.714 352.605C190.568 353.34 190.421 354.001 190.274 354.588C190.274 355.176 190.2 355.764 190.054 356.351C194.166 355.176 198.278 354.001 202.391 352.826C206.503 351.65 210.615 350.475 214.728 349.3Z" fill="url(#paint6_linear_13_676)"/>
<path d="M278.917 400.203C276.714 399.762 274.804 398.881 273.189 397.559C271.72 396.09 270.472 394.474 269.444 392.711C268.416 390.801 267.755 388.818 267.461 386.761C267.167 384.704 267.241 382.648 267.681 380.591C268.269 378.387 269.223 376.551 270.545 375.082C271.867 373.466 273.409 372.144 275.172 371.115C277.081 370.087 279.064 369.5 281.12 369.353C283.176 369.059 285.232 369.132 287.288 369.573C289.344 370.161 291.768 370.748 294.558 371.336C297.349 371.924 300.139 372.291 302.93 372.438C305.867 372.585 308.584 372.364 311.081 371.777C313.725 371.042 315.928 369.72 317.69 367.81C319.159 366.047 319.82 364.284 319.673 362.521C319.526 360.759 318.939 359.143 317.91 357.673C316.882 356.058 315.561 354.662 313.945 353.487C312.476 352.165 311.081 350.989 309.759 349.961C306.381 347.463 302.71 344.893 298.744 342.248C294.925 339.457 291.18 336.519 287.509 333.434C283.837 330.349 280.532 327.117 277.595 323.738C274.804 320.212 272.748 316.466 271.426 312.5C269.223 305.889 268.562 299.719 269.444 293.989C270.472 288.113 272.601 282.824 275.832 278.123C279.064 273.275 283.176 268.942 288.169 265.122C293.31 261.302 298.744 258.144 304.472 255.647C310.347 253.002 316.295 251.019 322.317 249.697C328.485 248.375 334.286 247.787 339.721 247.934C344.127 248.081 347.798 249.77 350.736 253.002C353.673 256.087 355.289 259.76 355.582 264.02C355.582 266.224 355.142 268.281 354.261 270.19C353.379 271.953 352.204 273.569 350.736 275.038C349.267 276.36 347.578 277.462 345.669 278.344C343.759 279.225 341.777 279.739 339.721 279.886C335.608 280.18 331.422 280.841 327.163 281.869C323.051 282.898 319.232 284.147 315.707 285.616C312.183 287.085 309.172 288.848 306.675 290.904C304.178 292.814 302.563 294.944 301.828 297.295C301.241 299.498 301.681 301.849 303.15 304.346C304.619 306.844 307.556 309.341 311.962 311.839C314.9 313.895 318.351 316.319 322.317 319.11C326.282 321.755 330.174 324.766 333.993 328.145C337.811 331.377 341.336 334.903 344.567 338.723C347.798 342.395 350.222 346.288 351.837 350.402C353.6 354.956 354.261 359.583 353.82 364.284C353.526 368.985 352.351 373.466 350.295 377.726C347.211 384.337 343.025 389.552 337.738 393.372C332.597 397.045 326.796 399.689 320.334 401.305C314.018 402.774 307.262 403.362 300.066 403.068C292.869 402.774 285.82 401.819 278.917 400.203Z" fill="url(#paint7_linear_13_676)"/>
<path d="M381.786 421.358C379.437 421.505 377.307 421.137 375.398 420.256C373.488 419.374 371.873 418.199 370.551 416.73C369.229 415.114 368.128 413.351 367.246 411.441C366.512 409.532 366.071 407.548 365.925 405.492C363.868 383.896 362.326 362.375 361.298 340.926C360.27 319.331 359.683 297.662 359.536 275.92C359.536 273.716 359.903 271.659 360.637 269.75C361.519 267.84 362.693 266.224 364.162 264.902C365.631 263.433 367.32 262.257 369.229 261.376C371.138 260.495 373.121 260.054 375.177 260.054C377.38 259.907 379.437 260.274 381.346 261.156C383.255 262.037 384.871 263.212 386.193 264.681C387.661 266.15 388.836 267.913 389.717 269.97C390.599 271.88 391.039 273.863 391.039 275.92C391.186 294.43 391.627 312.94 392.361 331.451C400.733 330.275 408.957 329.1 417.035 327.925C425.26 326.603 433.484 325.354 441.709 324.179C442.003 316.393 442.37 308.753 442.811 301.261C443.398 293.622 444.059 285.909 444.793 278.123C445.087 273.569 446.629 269.823 449.42 266.885C452.21 263.947 455.955 262.404 460.655 262.257C462.564 262.11 464.474 262.478 466.383 263.359C468.439 264.241 470.202 265.416 471.67 266.885C473.286 268.354 474.534 270.117 475.415 272.174C476.297 274.083 476.664 276.067 476.517 278.123C474.755 300.453 473.433 322.783 472.551 345.113C471.817 367.296 471.67 389.626 472.111 412.103C472.111 416.51 470.495 420.182 467.264 423.121C464.033 426.059 460.288 427.675 456.029 427.969C453.826 428.115 451.769 427.748 449.86 426.867C447.951 425.985 446.262 424.81 444.793 423.341C443.325 421.872 442.15 420.109 441.268 418.052C440.534 416.142 440.167 414.159 440.167 412.103C440.02 402.701 439.947 393.372 439.947 384.117C439.947 374.862 440.093 365.606 440.387 356.351C432.75 357.527 425.113 358.702 417.476 359.877C409.838 360.905 402.128 362.007 394.344 363.182C395.225 377.286 396.326 391.389 397.648 405.492C397.795 407.695 397.428 409.752 396.547 411.662C395.666 413.572 394.417 415.261 392.802 416.73C391.333 418.052 389.57 419.154 387.514 420.036C385.605 420.917 383.696 421.358 381.786 421.358Z" fill="url(#paint8_linear_13_676)"/>
<path d="M120.221 26.4716C124.48 27.6469 127.638 30.2178 129.694 34.1843C131.75 38.0038 132.338 42.0438 131.456 46.3041C130.281 50.5644 127.711 53.7229 123.746 55.7796C119.78 57.8363 115.668 58.4239 111.409 57.5425C102.45 55.0451 93.3438 53.3556 84.091 52.4742C74.8383 51.4458 65.2184 50.7848 55.2313 50.4909C55.2313 59.3054 55.2313 68.1932 55.2313 77.1546C55.2313 86.1159 55.7453 95.0038 56.7734 103.818H85.8535C90.4064 103.818 94.1516 105.434 97.0889 108.666C100.026 111.751 101.642 115.497 101.936 119.905C101.936 122.108 101.495 124.238 100.614 126.295C99.7326 128.205 98.5576 129.894 97.0889 131.363C95.6203 132.685 93.8578 133.787 91.8017 134.669C89.8924 135.55 87.9096 135.991 85.8535 135.991H58.5358C59.2702 144.805 60.0045 153.546 60.7389 162.214C61.6201 170.881 62.6482 179.622 63.8231 188.437C64.1169 190.64 63.7497 192.697 62.7216 194.607C61.8404 196.517 60.592 198.206 58.9764 199.675C57.5078 201.144 55.7453 202.319 53.6892 203.201C51.633 203.935 49.6503 204.376 47.741 204.523C45.6848 204.67 43.6286 204.229 41.5725 203.201C39.5163 202.319 37.8273 201.218 36.5055 199.895C34.8899 198.279 33.7884 196.517 33.2009 194.607C32.6135 192.697 32.1729 190.64 31.8791 188.437C30.7042 179.328 29.6761 170.294 28.7949 161.332C27.9137 152.224 27.1059 143.042 26.3715 133.787C25.6372 125.56 25.0497 117.407 24.6091 109.327C24.3154 101.1 24.0216 92.8736 23.7279 84.6468C23.581 80.6803 23.4342 76.7138 23.2873 72.7474C23.2873 68.7809 23.2873 64.7409 23.2873 60.6275C23.2873 57.1018 23.2873 53.5025 23.2873 49.8299C23.4342 46.1572 24.0216 42.558 25.0497 39.0322C26.6653 34.3312 29.0886 30.2178 32.3197 26.692C35.6977 23.0193 39.8835 20.5219 44.877 19.1997C48.9894 18.1714 53.1751 17.8041 57.4343 18.0979C61.8404 18.3918 66.0996 18.6856 70.2119 18.9794C78.7303 19.7139 87.1019 20.6688 95.3265 21.8441C103.551 22.8724 111.849 24.4149 120.221 26.4716Z" stroke="#00757C" stroke-width="36" mask="url(#path-1-outside-1_13_676)"/>
<path d="M180.601 173.893C185.007 174.334 188.312 176.096 190.515 179.181C192.718 182.12 193.746 185.352 193.599 188.877C193.599 192.403 192.351 195.782 189.854 199.014C187.504 202.099 183.906 204.009 179.059 204.743C176.269 205.184 173.405 205.404 170.467 205.404C167.53 205.404 164.813 205.404 162.316 205.404C155.56 205.404 149.024 203.935 142.709 200.997C139.625 199.528 137.055 197.618 134.998 195.268C132.942 192.917 131.18 190.346 129.711 187.555C128.389 184.617 127.361 181.605 126.627 178.52C125.892 175.288 125.452 172.13 125.305 169.045C124.277 152.151 124.864 135.036 127.067 117.701C129.27 100.366 132.722 83.0308 137.422 65.6958C138.597 61.4355 141.093 58.277 144.912 56.2203C148.731 54.0167 152.769 53.4291 157.029 54.4574C159.085 54.8981 160.921 55.7796 162.536 57.1017C164.299 58.4239 165.621 60.0399 166.502 61.9497C167.53 63.7126 168.191 65.6958 168.484 67.8994C168.778 69.9561 168.631 72.0128 168.044 74.0695C166.428 81.7087 164.886 88.8337 163.417 95.4445C162.096 102.055 160.921 108.666 159.893 115.277C158.865 121.741 157.983 128.425 157.249 135.33C156.662 142.234 156.294 149.874 156.147 158.247C156.001 162.508 156.294 166.107 157.029 169.045C157.763 171.983 159.379 173.452 161.875 173.452C164.372 173.452 167.456 173.452 171.128 173.452C174.8 173.452 177.958 173.599 180.601 173.893Z" stroke="#00757C" stroke-width="36" mask="url(#path-1-outside-1_13_676)"/>
<path d="M271.757 72.527C279.688 88.9806 286.958 105.655 293.567 122.549C300.176 139.443 306.051 156.778 311.191 174.554C312.366 178.814 311.852 182.781 309.649 186.453C307.446 190.126 304.215 192.697 299.956 194.166C297.9 194.901 295.77 195.121 293.567 194.827C291.511 194.386 289.601 193.652 287.839 192.623C286.077 191.448 284.534 190.053 283.213 188.437C281.891 186.821 280.936 184.984 280.349 182.928C279.468 179.843 278.513 176.831 277.485 173.893C276.604 170.808 275.722 167.723 274.841 164.638C274.107 164.932 273.372 165.299 272.638 165.74C271.904 166.033 271.169 166.327 270.435 166.621C263.679 168.531 256.923 170.441 250.167 172.35C243.558 174.113 236.949 176.023 230.34 178.08C230.046 179.989 229.679 181.899 229.238 183.809C228.945 185.572 228.651 187.408 228.357 189.318C227.916 191.522 227.035 193.431 225.713 195.047C224.392 196.663 222.776 197.986 220.867 199.014C218.957 199.895 216.901 200.483 214.698 200.777C212.495 201.071 210.439 200.997 208.53 200.556C204.124 199.381 200.966 196.884 199.057 193.064C197.294 189.098 196.78 185.058 197.515 180.944C199.277 170.367 201.113 159.937 203.022 149.653C205.078 139.37 207.135 129.086 209.191 118.803C210.953 109.694 212.716 100.66 214.478 91.6983C216.387 82.5901 219.178 73.7757 222.85 65.2551C224.024 62.317 225.346 59.5257 226.815 56.8814C228.431 54.0902 230.707 51.8866 233.644 50.2706C239.813 46.5979 246.275 46.1572 253.031 48.9484C255.528 49.9768 257.657 51.3724 259.42 53.1353C261.329 54.8981 263.018 56.8079 264.487 58.8646C265.956 60.9213 267.204 63.1249 268.232 65.4755C269.407 67.826 270.582 70.1765 271.757 72.527ZM261.843 135.55C262.724 135.256 263.532 135.109 264.267 135.109C261.77 128.352 259.053 121.667 256.115 115.057C253.325 108.446 250.241 101.688 246.863 94.7834C244.953 101.982 243.338 109.254 242.016 116.599C240.694 123.944 239.299 131.363 237.83 138.856C237.683 139.59 237.536 140.251 237.39 140.839C237.39 141.426 237.316 142.014 237.169 142.602C241.282 141.426 245.394 140.251 249.506 139.076C253.619 137.901 257.731 136.725 261.843 135.55Z" stroke="#00757C" stroke-width="36" mask="url(#path-1-outside-1_13_676)"/>
<path d="M432.439 198.353C431.852 178.374 430.75 158.615 429.134 139.076C427.519 119.39 425.389 99.6313 422.746 79.7989C422.158 75.6855 423.48 72.3066 426.711 69.6623C429.942 66.8711 433.908 64.6675 438.608 63.0515C443.454 61.4355 448.374 60.2603 453.368 59.5257C458.361 58.7912 462.4 58.4239 465.485 58.4239C471.359 58.4239 477.454 58.7177 483.77 59.3054C490.085 59.893 496.18 61.1417 502.055 63.0515C507.93 64.9613 513.29 67.7525 518.137 71.4252C523.131 75.0979 527.243 80.0193 530.474 86.1893C534.293 93.6816 536.422 101.541 536.863 109.768C537.304 117.995 535.982 125.928 532.897 133.567C530.107 140.471 526.288 146.788 521.442 152.518C516.742 158.247 511.308 163.169 505.139 167.282C498.971 171.249 492.288 174.334 485.092 176.537C478.042 178.741 470.772 179.843 463.282 179.843C463.722 186.013 463.942 192.183 463.942 198.353C464.236 202.76 462.767 206.433 459.536 209.371C456.305 212.309 452.56 213.925 448.301 214.219C446.098 214.366 444.042 213.998 442.132 213.117C440.223 212.236 438.534 211.06 437.065 209.591C435.744 208.122 434.642 206.359 433.761 204.303C432.88 202.393 432.439 200.41 432.439 198.353ZM461.519 148.111C465.191 148.111 469.009 147.67 472.975 146.788C476.94 145.76 480.686 144.291 484.21 142.381C487.882 140.471 491.187 138.121 494.124 135.33C497.208 132.539 499.705 129.307 501.614 125.634C503.524 122.108 504.699 118.582 505.139 115.057C505.727 111.384 505.359 108.005 504.038 104.92C502.863 101.688 500.733 98.8968 497.649 96.5463C494.711 94.1958 490.599 92.4329 485.312 91.2576C480.612 90.2293 475.692 89.862 470.552 90.1558C465.558 90.3027 460.711 90.5966 456.012 91.0373C457.186 100.439 458.215 109.915 459.096 119.464C459.977 128.866 460.785 138.415 461.519 148.111ZM417.018 99.411C414.962 106.022 411.657 112.486 407.104 118.803C402.551 125.12 397.117 130.776 390.802 135.77C384.633 140.765 377.877 144.805 370.534 147.89C363.337 150.975 355.994 152.665 348.503 152.959C348.503 160.01 348.503 167.062 348.503 174.113C348.65 181.165 348.797 188.216 348.944 195.268C348.944 199.822 347.328 203.568 344.097 206.506C341.013 209.444 337.341 211.06 333.082 211.354C330.879 211.501 328.75 211.134 326.693 210.252C324.784 209.371 323.095 208.122 321.626 206.506C320.305 205.037 319.203 203.348 318.322 201.438C317.441 199.381 317 197.325 317 195.268C316.706 174.554 316.559 153.987 316.559 133.567C316.706 113 316.927 92.3594 317.22 71.6456C315.752 66.9445 315.458 62.8311 316.339 59.3054C317.22 55.7796 318.836 52.8414 321.186 50.4909C323.536 47.9935 326.473 46.0103 329.998 44.5412C333.67 42.9252 337.488 41.6765 341.454 40.7951C345.566 39.7667 349.605 39.1056 353.57 38.8118C357.536 38.3711 361.208 38.0773 364.586 37.9304C372.516 37.9304 380.301 39.1791 387.938 41.6765C395.722 44.1739 402.331 48.4342 407.765 54.4574C413.346 60.6275 416.871 67.6791 418.34 75.612C419.955 83.545 419.515 91.478 417.018 99.411ZM348.503 121.227C352.175 120.933 355.994 119.905 359.959 118.142C364.071 116.232 367.89 113.881 371.415 111.09C374.94 108.299 378.024 105.214 380.668 101.835C383.311 98.3092 385.221 94.6365 386.396 90.8169C387.571 86.5566 387.35 82.5167 385.735 78.6971C384.119 74.7306 380.741 72.0863 375.601 70.7641C371.342 69.5889 366.789 69.2216 361.942 69.6623C357.095 70.103 352.909 70.6172 349.385 71.2048C349.385 71.2048 349.311 71.2783 349.164 71.4252C349.017 79.7989 348.871 88.0991 348.724 96.3259C348.724 104.553 348.65 112.853 348.503 121.227Z" stroke="#00757C" stroke-width="36" mask="url(#path-1-outside-1_13_676)"/>
<path d="M552.769 105.581C550.42 99.7048 548.437 93.8285 546.821 87.9522C545.353 82.0759 544.031 76.0528 542.856 69.8827C542.121 65.4754 542.709 61.509 544.618 57.9832C546.528 54.4574 549.685 51.8866 554.091 50.2706C556.001 49.683 557.983 49.536 560.039 49.8299C562.243 50.1237 564.225 50.8582 565.988 52.0335C567.897 53.0618 569.513 54.384 570.834 55.9999C572.303 57.6159 573.258 59.4523 573.698 61.509C574.726 67.6791 575.901 73.6288 577.223 79.3582C578.692 84.9406 580.528 90.5231 582.731 96.1056C584.934 102.716 587.651 106.683 590.882 108.005C594.113 109.327 597.564 108.96 601.236 106.903C605.055 104.847 608.947 101.541 612.912 96.987C617.025 92.4329 620.917 87.6584 624.588 82.6636C628.26 77.5218 631.638 72.6004 634.722 67.8994C637.807 63.0515 640.303 59.3788 642.213 56.8814C644.563 53.9433 647.206 51.8131 650.144 50.4909C653.081 49.0219 656.459 48.7281 660.278 49.6095C663.362 50.344 666.152 52.2538 668.649 55.3389C671.146 58.277 672.247 61.4355 671.954 64.8144C671.072 72.8943 670.191 80.8272 669.31 88.6133C668.429 96.3994 667.621 104.259 666.887 112.192C666.152 119.243 665.418 126.295 664.684 133.346C663.949 140.398 663.068 147.45 662.04 154.501C660.424 167.135 656.606 177.345 650.584 185.131C644.563 192.917 637.072 198.647 628.113 202.319C619.301 205.845 609.387 207.535 598.372 207.388C587.357 207.241 576.048 205.551 564.446 202.319C560.186 201.144 557.029 198.647 554.972 194.827C552.916 191.007 552.402 186.968 553.43 182.707C553.871 180.651 554.752 178.814 556.074 177.198C557.543 175.435 559.158 174.113 560.921 173.232C562.683 172.203 564.592 171.542 566.649 171.249C568.852 170.808 570.981 170.881 573.037 171.469C577.443 173.085 582.657 174.113 588.679 174.554C594.701 174.995 600.575 174.554 606.303 173.232C612.031 171.91 617.172 169.559 621.724 166.18C626.277 162.654 629.288 157.88 630.757 151.857C631.785 146.715 632.372 141.353 632.519 135.77C632.666 130.188 633.254 124.752 634.282 119.464C632.226 122.843 629.655 126.075 626.571 129.16C623.634 132.245 620.329 134.962 616.657 137.313C612.986 139.663 609.094 141.573 604.981 143.042C601.016 144.511 596.977 145.246 592.865 145.246C587.431 145.246 582.657 144.144 578.545 141.941C574.433 139.59 570.761 136.578 567.53 132.906C564.299 129.086 561.508 124.826 559.158 120.125C556.808 115.277 554.679 110.429 552.769 105.581Z" stroke="#00757C" stroke-width="36" mask="url(#path-1-outside-1_13_676)"/>
<path d="M100.834 237.797C111.115 242.351 119.486 248.742 125.949 256.969C132.558 265.049 137.404 274.083 140.489 284.073C143.573 293.916 144.968 304.273 144.674 315.144C144.381 325.868 142.618 336.152 139.387 345.994C136.303 355.25 132.191 364.064 127.05 372.438C121.91 380.664 115.888 388.23 108.985 395.135C102.082 401.893 94.3719 407.842 85.8535 412.984C77.4819 417.979 68.5964 421.872 59.1968 424.663C54.4969 425.545 50.6049 425.985 47.5207 425.985C44.5833 425.985 42.1599 425.398 40.2507 424.222C38.3414 423.047 36.7992 421.211 35.6243 418.713C34.5962 416.363 33.6415 413.204 32.7603 409.238C31.7323 397.926 30.5573 385.88 29.2355 373.099C28.0605 360.171 26.8121 347.096 25.4903 333.875C24.3154 320.653 23.067 307.578 21.7452 294.65C20.4233 281.723 19.2484 269.603 18.2203 258.291C17.9266 255.206 17.9266 251.974 18.2203 248.595C18.3672 245.216 19.0281 242.058 20.203 239.12C21.2311 236.034 22.9201 233.537 25.27 231.627C27.6199 229.571 30.7776 228.395 34.7431 228.102C46.052 227.367 57.214 227.661 68.2292 228.983C79.3912 230.158 90.2595 233.096 100.834 237.797ZM62.9419 388.965C69.8448 386.467 76.3804 382.501 82.5489 377.065C88.7174 371.483 94.0781 365.092 98.6311 357.894C103.184 350.695 106.782 342.983 109.426 334.756C112.07 326.382 113.245 318.229 112.951 310.296C112.804 302.216 110.968 294.65 107.443 287.599C104.065 280.4 98.5576 274.304 90.9204 269.309C85.1926 265.636 78.8038 263.065 71.754 261.596C64.8512 259.98 57.6546 259.393 50.1643 259.833C52.3673 281.429 54.4969 302.951 56.5531 324.399C58.7561 345.848 60.8857 367.369 62.9419 388.965Z" stroke="#00757C" stroke-width="36" mask="url(#path-1-outside-1_13_676)"/>
<path d="M224.641 286.277C232.572 302.73 239.842 319.404 246.451 336.299C253.06 353.193 258.935 370.528 264.076 388.304C265.25 392.564 264.736 396.53 262.533 400.203C260.33 403.876 257.099 406.447 252.84 407.916C250.784 408.65 248.654 408.871 246.451 408.577C244.395 408.136 242.486 407.402 240.723 406.373C238.961 405.198 237.419 403.802 236.097 402.186C234.775 400.57 233.821 398.734 233.233 396.677C232.352 393.592 231.397 390.581 230.369 387.643C229.488 384.557 228.607 381.472 227.725 378.387C226.991 378.681 226.257 379.048 225.522 379.489C224.788 379.783 224.054 380.077 223.319 380.371C216.563 382.28 209.807 384.19 203.051 386.1C196.442 387.863 189.833 389.773 183.224 391.829C182.93 393.739 182.563 395.649 182.123 397.559C181.829 399.322 181.535 401.158 181.241 403.068C180.801 405.271 179.92 407.181 178.598 408.797C177.276 410.413 175.66 411.735 173.751 412.764C171.842 413.645 169.786 414.233 167.583 414.527C165.38 414.82 163.323 414.747 161.414 414.306C157.008 413.131 153.85 410.633 151.941 406.814C150.179 402.847 149.665 398.807 150.399 394.694C152.161 384.117 153.997 373.686 155.907 363.403C157.963 353.119 160.019 342.836 162.075 332.552C163.837 323.444 165.6 314.409 167.362 305.448C169.272 296.34 172.062 287.525 175.734 279.005C176.909 276.067 178.231 273.275 179.699 270.631C181.315 267.84 183.591 265.636 186.529 264.02C192.697 260.348 199.159 259.907 205.915 262.698C208.412 263.726 210.542 265.122 212.304 266.885C214.213 268.648 215.902 270.558 217.371 272.614C218.84 274.671 220.088 276.875 221.116 279.225C222.291 281.576 223.466 283.926 224.641 286.277ZM214.728 349.3C215.609 349.006 216.417 348.859 217.151 348.859C214.654 342.101 211.937 335.417 209 328.806C206.209 322.195 203.125 315.438 199.747 308.533C197.838 315.732 196.222 323.003 194.9 330.349C193.578 337.694 192.183 345.113 190.714 352.605C190.568 353.34 190.421 354.001 190.274 354.588C190.274 355.176 190.2 355.764 190.054 356.351C194.166 355.176 198.278 354.001 202.391 352.826C206.503 351.65 210.615 350.475 214.728 349.3Z" stroke="#00757C" stroke-width="36" mask="url(#path-1-outside-1_13_676)"/>
<path d="M278.917 400.203C276.714 399.762 274.804 398.881 273.189 397.559C271.72 396.09 270.472 394.474 269.444 392.711C268.416 390.801 267.755 388.818 267.461 386.761C267.167 384.704 267.241 382.648 267.681 380.591C268.269 378.387 269.223 376.551 270.545 375.082C271.867 373.466 273.409 372.144 275.172 371.115C277.081 370.087 279.064 369.5 281.12 369.353C283.176 369.059 285.232 369.132 287.288 369.573C289.344 370.161 291.768 370.748 294.558 371.336C297.349 371.924 300.139 372.291 302.93 372.438C305.867 372.585 308.584 372.364 311.081 371.777C313.725 371.042 315.928 369.72 317.69 367.81C319.159 366.047 319.82 364.284 319.673 362.521C319.526 360.759 318.939 359.143 317.91 357.673C316.882 356.058 315.561 354.662 313.945 353.487C312.476 352.165 311.081 350.989 309.759 349.961C306.381 347.463 302.71 344.893 298.744 342.248C294.925 339.457 291.18 336.519 287.509 333.434C283.837 330.349 280.532 327.117 277.595 323.738C274.804 320.212 272.748 316.466 271.426 312.5C269.223 305.889 268.562 299.719 269.444 293.989C270.472 288.113 272.601 282.824 275.832 278.123C279.064 273.275 283.176 268.942 288.169 265.122C293.31 261.302 298.744 258.144 304.472 255.647C310.347 253.002 316.295 251.019 322.317 249.697C328.485 248.375 334.286 247.787 339.721 247.934C344.127 248.081 347.798 249.77 350.736 253.002C353.673 256.087 355.289 259.76 355.582 264.02C355.582 266.224 355.142 268.281 354.261 270.19C353.379 271.953 352.204 273.569 350.736 275.038C349.267 276.36 347.578 277.462 345.669 278.344C343.759 279.225 341.777 279.739 339.721 279.886C335.608 280.18 331.422 280.841 327.163 281.869C323.051 282.898 319.232 284.147 315.707 285.616C312.183 287.085 309.172 288.848 306.675 290.904C304.178 292.814 302.563 294.944 301.828 297.295C301.241 299.498 301.681 301.849 303.15 304.346C304.619 306.844 307.556 309.341 311.962 311.839C314.9 313.895 318.351 316.319 322.317 319.11C326.282 321.755 330.174 324.766 333.993 328.145C337.811 331.377 341.336 334.903 344.567 338.723C347.798 342.395 350.222 346.288 351.837 350.402C353.6 354.956 354.261 359.583 353.82 364.284C353.526 368.985 352.351 373.466 350.295 377.726C347.211 384.337 343.025 389.552 337.738 393.372C332.597 397.045 326.796 399.689 320.334 401.305C314.018 402.774 307.262 403.362 300.066 403.068C292.869 402.774 285.82 401.819 278.917 400.203Z" stroke="#00757C" stroke-width="36" mask="url(#path-1-outside-1_13_676)"/>
<path d="M381.786 421.358C379.437 421.505 377.307 421.137 375.398 420.256C373.488 419.374 371.873 418.199 370.551 416.73C369.229 415.114 368.128 413.351 367.246 411.441C366.512 409.532 366.071 407.548 365.925 405.492C363.868 383.896 362.326 362.375 361.298 340.926C360.27 319.331 359.683 297.662 359.536 275.92C359.536 273.716 359.903 271.659 360.637 269.75C361.519 267.84 362.693 266.224 364.162 264.902C365.631 263.433 367.32 262.257 369.229 261.376C371.138 260.495 373.121 260.054 375.177 260.054C377.38 259.907 379.437 260.274 381.346 261.156C383.255 262.037 384.871 263.212 386.193 264.681C387.661 266.15 388.836 267.913 389.717 269.97C390.599 271.88 391.039 273.863 391.039 275.92C391.186 294.43 391.627 312.94 392.361 331.451C400.733 330.275 408.957 329.1 417.035 327.925C425.26 326.603 433.484 325.354 441.709 324.179C442.003 316.393 442.37 308.753 442.811 301.261C443.398 293.622 444.059 285.909 444.793 278.123C445.087 273.569 446.629 269.823 449.42 266.885C452.21 263.947 455.955 262.404 460.655 262.257C462.564 262.11 464.474 262.478 466.383 263.359C468.439 264.241 470.202 265.416 471.67 266.885C473.286 268.354 474.534 270.117 475.415 272.174C476.297 274.083 476.664 276.067 476.517 278.123C474.755 300.453 473.433 322.783 472.551 345.113C471.817 367.296 471.67 389.626 472.111 412.103C472.111 416.51 470.495 420.182 467.264 423.121C464.033 426.059 460.288 427.675 456.029 427.969C453.826 428.115 451.769 427.748 449.86 426.867C447.951 425.985 446.262 424.81 444.793 423.341C443.325 421.872 442.15 420.109 441.268 418.052C440.534 416.142 440.167 414.159 440.167 412.103C440.02 402.701 439.947 393.372 439.947 384.117C439.947 374.862 440.093 365.606 440.387 356.351C432.75 357.527 425.113 358.702 417.476 359.877C409.838 360.905 402.128 362.007 394.344 363.182C395.225 377.286 396.326 391.389 397.648 405.492C397.795 407.695 397.428 409.752 396.547 411.662C395.666 413.572 394.417 415.261 392.802 416.73C391.333 418.052 389.57 419.154 387.514 420.036C385.605 420.917 383.696 421.358 381.786 421.358Z" stroke="#00757C" stroke-width="36" mask="url(#path-1-outside-1_13_676)"/>
<defs>
<linearGradient id="paint0_linear_13_676" x1="345.371" y1="83.1043" x2="345" y2="428" gradientUnits="userSpaceOnUse">
<stop stop-color="white"/>
<stop offset="1" stop-color="#18D5FF"/>
</linearGradient>
<linearGradient id="paint1_linear_13_676" x1="345.371" y1="83.1043" x2="345" y2="428" gradientUnits="userSpaceOnUse">
<stop stop-color="white"/>
<stop offset="1" stop-color="#18D5FF"/>
</linearGradient>
<linearGradient id="paint2_linear_13_676" x1="345.371" y1="83.1043" x2="345" y2="428" gradientUnits="userSpaceOnUse">
<stop stop-color="white"/>
<stop offset="1" stop-color="#18D5FF"/>
</linearGradient>
<linearGradient id="paint3_linear_13_676" x1="345.371" y1="83.1043" x2="345" y2="428" gradientUnits="userSpaceOnUse">
<stop stop-color="white"/>
<stop offset="1" stop-color="#18D5FF"/>
</linearGradient>
<linearGradient id="paint4_linear_13_676" x1="345.371" y1="83.1043" x2="345" y2="428" gradientUnits="userSpaceOnUse">
<stop stop-color="white"/>
<stop offset="1" stop-color="#18D5FF"/>
</linearGradient>
<linearGradient id="paint5_linear_13_676" x1="345.371" y1="83.1043" x2="345" y2="428" gradientUnits="userSpaceOnUse">
<stop stop-color="white"/>
<stop offset="1" stop-color="#18D5FF"/>
</linearGradient>
<linearGradient id="paint6_linear_13_676" x1="345.371" y1="83.1043" x2="345" y2="428" gradientUnits="userSpaceOnUse">
<stop stop-color="white"/>
<stop offset="1" stop-color="#18D5FF"/>
</linearGradient>
<linearGradient id="paint7_linear_13_676" x1="345.371" y1="83.1043" x2="345" y2="428" gradientUnits="userSpaceOnUse">
<stop stop-color="white"/>
<stop offset="1" stop-color="#18D5FF"/>
</linearGradient>
<linearGradient id="paint8_linear_13_676" x1="345.371" y1="83.1043" x2="345" y2="428" gradientUnits="userSpaceOnUse">
<stop stop-color="white"/>
<stop offset="1" stop-color="#18D5FF"/>
</linearGradient>
</defs>
</svg>
