<svg width="1017" height="544" viewBox="0 0 1017 544" fill="none" xmlns="http://www.w3.org/2000/svg">
<path fill-rule="evenodd" clip-rule="evenodd" d="M466.3 445.038C466.368 431.76 467.63 422.713 469.355 418.4L457.897 413.817C455.235 420.474 454.029 431.583 453.96 444.974C453.889 458.646 455.012 475.525 457.51 494.258C457.884 497.059 458.265 499.765 458.645 502.46C460.962 518.904 463.215 534.895 463.215 569.131C463.215 600.361 452.503 638.921 447.109 654.294L458.753 658.38C464.329 642.49 475.555 602.4 475.555 569.131C475.555 534.028 473.206 517.357 470.867 500.754C470.488 498.069 470.11 495.386 469.742 492.627C467.304 474.339 466.233 458.036 466.3 445.038Z" fill="url(#paint0_linear_13_315)"/>
<path d="M507.718 454.295C527.117 448.915 550.577 455.721 559.882 459.796L467.169 488.731C472.603 479.494 488.32 459.674 507.718 454.295Z" fill="url(#paint1_linear_13_315)"/>
<path d="M507.718 454.295C527.117 448.915 550.577 455.721 559.882 459.796L467.169 488.731C472.603 479.494 488.32 459.674 507.718 454.295Z" fill="url(#paint2_linear_13_315)"/>
<path d="M519.129 494.233C499.73 499.612 476.27 492.807 466.965 488.731L559.678 459.796C554.245 469.034 538.527 488.853 519.129 494.233Z" fill="url(#paint3_linear_13_315)"/>
<path d="M519.129 494.233C499.73 499.612 476.27 492.807 466.965 488.731L559.678 459.796C554.245 469.034 538.527 488.853 519.129 494.233Z" fill="url(#paint4_linear_13_315)"/>
<path d="M426.164 494.607C406.766 489.228 383.306 496.033 374 500.109L466.714 529.043C461.28 519.806 445.563 499.986 426.164 494.607Z" fill="url(#paint5_linear_13_315)"/>
<path d="M426.164 494.607C406.766 489.228 383.306 496.033 374 500.109L466.714 529.043C461.28 519.806 445.563 499.986 426.164 494.607Z" fill="url(#paint6_linear_13_315)"/>
<path d="M414.753 534.545C434.152 539.925 457.612 533.119 466.917 529.043L374.204 500.109C379.638 509.346 395.355 529.166 414.753 534.545Z" fill="url(#paint7_linear_13_315)"/>
<path d="M414.753 534.545C434.152 539.925 457.612 533.119 466.917 529.043L374.204 500.109C379.638 509.346 395.355 529.166 414.753 534.545Z" fill="url(#paint8_linear_13_315)"/>
<path d="M407.496 400.01L424.889 288.718C425.101 287.353 426.163 286.277 427.525 286.046C428.887 285.814 430.244 286.48 430.895 287.698L448.882 321.246L456.051 307.596C456.607 306.54 457.701 305.879 458.894 305.879C460.087 305.879 461.181 306.54 461.737 307.596L510.277 400.01L407.496 400.01Z" fill="#FFA000"/>
<path d="M467.583 356.658L448.874 321.23L407.496 400.01L467.583 356.658Z" fill="#F57C00"/>
<path d="M510.277 400.01L496.956 317.577C496.755 316.393 495.91 315.42 494.766 315.054C493.622 314.687 492.37 314.992 491.52 315.841L407.496 400.009L453.989 426.082C456.908 427.712 460.464 427.712 463.383 426.082L510.277 400.009V400.01Z" fill="#FFCA28"/>
<path d="M496.956 317.577C496.754 316.393 495.91 315.421 494.765 315.054C493.621 314.687 492.369 314.993 491.52 315.841L474.843 332.56L461.729 307.595C461.174 306.54 460.079 305.879 458.886 305.879C457.694 305.879 456.599 306.54 456.044 307.595L448.874 321.246L430.887 287.698C430.234 286.479 428.876 285.815 427.512 286.048C426.149 286.281 425.091 287.36 424.88 288.726L407.496 400.01H407.44L407.496 400.075L407.954 400.299L491.495 316.661C492.345 315.808 493.6 315.501 494.747 315.867C495.894 316.232 496.74 317.208 496.94 318.396L510.149 400.091L510.277 400.01L496.956 317.577ZM407.649 399.858L424.889 289.513C425.099 288.147 426.159 287.068 427.521 286.835C428.884 286.602 430.242 287.266 430.896 288.485L448.882 322.033L456.051 308.383C456.606 307.327 457.701 306.666 458.894 306.666C460.086 306.666 461.181 307.327 461.736 308.383L474.584 332.817L407.649 399.858Z" fill="white" fill-opacity="0.2"/>
<path opacity="0.2" d="M463.384 425.296C460.464 426.926 456.908 426.926 453.989 425.296L407.609 399.296L407.496 400.011L453.989 426.075C456.908 427.706 460.464 427.706 463.383 426.075L510.277 400.011L510.157 399.272L463.384 425.296Z" fill="#A52714"/>
<path fill-rule="evenodd" clip-rule="evenodd" d="M962.065 454.158C962.105 446.38 962.845 441.081 963.855 438.555L957.143 435.87C955.584 439.77 954.877 446.276 954.837 454.121C954.796 462.129 955.454 472.016 956.917 482.989C957.135 484.63 957.359 486.215 957.581 487.793C958.938 497.426 960.258 506.792 960.258 526.846C960.258 545.14 953.984 567.727 950.824 576.732L957.645 579.125C960.911 569.817 967.487 546.334 967.487 526.846C967.487 506.285 966.111 496.519 964.74 486.794C964.519 485.221 964.297 483.65 964.082 482.034C962.653 471.321 962.026 461.771 962.065 454.158Z" fill="url(#paint9_linear_13_315)"/>
<path d="M986.326 459.58C997.689 456.429 1011.43 460.416 1016.88 462.803L962.574 479.752C965.757 474.341 974.964 462.731 986.326 459.58Z" fill="url(#paint10_linear_13_315)"/>
<path d="M986.326 459.58C997.689 456.429 1011.43 460.416 1016.88 462.803L962.574 479.752C965.757 474.341 974.964 462.731 986.326 459.58Z" fill="url(#paint11_linear_13_315)"/>
<path d="M993.01 482.974C981.648 486.125 967.906 482.139 962.455 479.752L1016.76 462.803C1013.58 468.214 1004.37 479.823 993.01 482.974Z" fill="url(#paint12_linear_13_315)"/>
<path d="M993.01 482.974C981.648 486.125 967.906 482.139 962.455 479.752L1016.76 462.803C1013.58 468.214 1004.37 479.823 993.01 482.974Z" fill="url(#paint13_linear_13_315)"/>
<path d="M938.556 483.193C927.193 480.042 913.451 484.029 908 486.416L962.308 503.365C959.125 497.954 949.918 486.344 938.556 483.193Z" fill="url(#paint14_linear_13_315)"/>
<path d="M938.556 483.193C927.193 480.042 913.451 484.029 908 486.416L962.308 503.365C959.125 497.954 949.918 486.344 938.556 483.193Z" fill="url(#paint15_linear_13_315)"/>
<path d="M931.871 506.588C943.234 509.739 956.976 505.752 962.427 503.365L908.119 486.416C911.302 491.827 920.509 503.437 931.871 506.588Z" fill="url(#paint16_linear_13_315)"/>
<path d="M931.871 506.588C943.234 509.739 956.976 505.752 962.427 503.365L908.119 486.416C911.302 491.827 920.509 503.437 931.871 506.588Z" fill="url(#paint17_linear_13_315)"/>
<path d="M927.621 427.783L937.808 362.592C937.933 361.792 938.555 361.162 939.352 361.027C940.15 360.891 940.945 361.281 941.327 361.995L951.863 381.646L956.062 373.65C956.387 373.032 957.029 372.644 957.727 372.644C958.426 372.644 959.067 373.032 959.392 373.65L987.825 427.783L927.621 427.783Z" fill="#FFA000"/>
<path d="M962.817 402.388L951.858 381.636L927.621 427.783L962.817 402.388Z" fill="#F57C00"/>
<path d="M987.825 427.783L980.022 379.496C979.905 378.803 979.41 378.233 978.739 378.019C978.069 377.804 977.336 377.983 976.838 378.48L927.621 427.782L954.854 443.054C956.564 444.009 958.647 444.009 960.357 443.054L987.825 427.782V427.783Z" fill="#FFCA28"/>
<path d="M980.022 379.496C979.904 378.803 979.41 378.233 978.739 378.019C978.069 377.804 977.336 377.983 976.838 378.48L967.07 388.273L959.388 373.65C959.063 373.031 958.422 372.644 957.723 372.644C957.024 372.644 956.383 373.031 956.058 373.65L951.858 381.646L941.322 361.995C940.94 361.281 940.144 360.892 939.345 361.028C938.546 361.165 937.927 361.797 937.804 362.597L927.62 427.783H927.588L927.62 427.82L927.889 427.952L976.824 378.96C977.321 378.46 978.057 378.281 978.729 378.495C979.4 378.709 979.896 379.281 980.013 379.976L987.75 427.83L987.825 427.783L980.022 379.496ZM927.71 427.693L937.808 363.058C937.931 362.258 938.552 361.626 939.35 361.489C940.148 361.353 940.944 361.742 941.327 362.456L951.862 382.107L956.062 374.111C956.387 373.493 957.029 373.106 957.727 373.106C958.426 373.106 959.067 373.493 959.392 374.111L966.918 388.424L927.71 427.693Z" fill="white" fill-opacity="0.2"/>
<path opacity="0.2" d="M960.357 442.594C958.647 443.549 956.564 443.549 954.854 442.594L927.686 427.364L927.621 427.783L954.854 443.05C956.564 444.005 958.647 444.005 960.357 443.05L987.825 427.783L987.755 427.35L960.357 442.594Z" fill="#A52714"/>
<path fill-rule="evenodd" clip-rule="evenodd" d="M853.065 454.158C853.105 446.38 853.845 441.081 854.855 438.555L848.143 435.87C846.584 439.77 845.877 446.276 845.837 454.121C845.796 462.129 846.454 472.016 847.917 482.989C848.135 484.63 848.359 486.215 848.581 487.793C849.938 497.426 851.258 506.792 851.258 526.846C851.258 545.14 844.984 567.727 841.824 576.732L848.645 579.125C851.911 569.817 858.487 546.334 858.487 526.846C858.487 506.285 857.111 496.519 855.74 486.794C855.519 485.221 855.297 483.65 855.082 482.034C853.653 471.321 853.026 461.771 853.065 454.158Z" fill="url(#paint18_linear_13_315)"/>
<path d="M877.326 459.58C888.689 456.429 902.431 460.416 907.882 462.803L853.574 479.752C856.757 474.341 865.964 462.731 877.326 459.58Z" fill="url(#paint19_linear_13_315)"/>
<path d="M877.326 459.58C888.689 456.429 902.431 460.416 907.882 462.803L853.574 479.752C856.757 474.341 865.964 462.731 877.326 459.58Z" fill="url(#paint20_linear_13_315)"/>
<path d="M884.01 482.974C872.648 486.125 858.906 482.139 853.455 479.752L907.763 462.803C904.58 468.214 895.373 479.823 884.01 482.974Z" fill="url(#paint21_linear_13_315)"/>
<path d="M884.01 482.974C872.648 486.125 858.906 482.139 853.455 479.752L907.763 462.803C904.58 468.214 895.373 479.823 884.01 482.974Z" fill="url(#paint22_linear_13_315)"/>
<path d="M829.556 483.193C818.193 480.042 804.451 484.029 799 486.416L853.308 503.365C850.125 497.954 840.918 486.344 829.556 483.193Z" fill="url(#paint23_linear_13_315)"/>
<path d="M829.556 483.193C818.193 480.042 804.451 484.029 799 486.416L853.308 503.365C850.125 497.954 840.918 486.344 829.556 483.193Z" fill="url(#paint24_linear_13_315)"/>
<path d="M822.871 506.588C834.234 509.739 847.976 505.752 853.427 503.365L799.119 486.416C802.302 491.827 811.509 503.437 822.871 506.588Z" fill="url(#paint25_linear_13_315)"/>
<path d="M822.871 506.588C834.234 509.739 847.976 505.752 853.427 503.365L799.119 486.416C802.302 491.827 811.509 503.437 822.871 506.588Z" fill="url(#paint26_linear_13_315)"/>
<path d="M818.621 427.783L828.808 362.592C828.933 361.792 829.555 361.162 830.352 361.027C831.15 360.891 831.945 361.281 832.327 361.995L842.863 381.646L847.062 373.65C847.387 373.032 848.029 372.644 848.727 372.644C849.426 372.644 850.067 373.032 850.392 373.65L878.825 427.783L818.621 427.783Z" fill="#FFA000"/>
<path d="M853.817 402.388L842.858 381.636L818.621 427.783L853.817 402.388Z" fill="#F57C00"/>
<path d="M878.825 427.783L871.022 379.496C870.905 378.803 870.41 378.233 869.739 378.019C869.069 377.804 868.336 377.983 867.838 378.48L818.621 427.782L845.854 443.054C847.564 444.009 849.647 444.009 851.357 443.054L878.825 427.782V427.783Z" fill="#FFCA28"/>
<path d="M871.022 379.496C870.904 378.803 870.41 378.233 869.739 378.019C869.069 377.804 868.336 377.983 867.838 378.48L858.07 388.273L850.388 373.65C850.063 373.031 849.422 372.644 848.723 372.644C848.024 372.644 847.383 373.031 847.058 373.65L842.858 381.646L832.322 361.995C831.94 361.281 831.144 360.892 830.345 361.028C829.546 361.165 828.927 361.797 828.804 362.597L818.62 427.783H818.588L818.62 427.82L818.889 427.952L867.824 378.96C868.321 378.46 869.057 378.281 869.729 378.495C870.4 378.709 870.896 379.281 871.013 379.976L878.75 427.83L878.825 427.783L871.022 379.496ZM818.71 427.693L828.808 363.058C828.931 362.258 829.552 361.626 830.35 361.489C831.148 361.353 831.944 361.742 832.327 362.456L842.862 382.107L847.062 374.111C847.387 373.493 848.029 373.106 848.727 373.106C849.426 373.106 850.067 373.493 850.392 374.111L857.918 388.424L818.71 427.693Z" fill="white" fill-opacity="0.2"/>
<path opacity="0.2" d="M851.357 442.594C849.647 443.549 847.564 443.549 845.854 442.594L818.686 427.364L818.621 427.783L845.854 443.05C847.564 444.005 849.647 444.005 851.357 443.05L878.825 427.783L878.755 427.35L851.357 442.594Z" fill="#A52714"/>
<path fill-rule="evenodd" clip-rule="evenodd" d="M638.397 421.081C638.455 409.804 639.527 402.119 640.992 398.456L631.26 394.564C628.998 400.218 627.974 409.653 627.915 421.028C627.856 432.64 628.81 446.976 630.931 462.887C631.248 465.266 631.572 467.565 631.895 469.854C633.863 483.821 635.776 497.403 635.776 526.482C635.776 553.008 626.678 585.759 622.097 598.817L631.987 602.287C636.723 588.791 646.258 554.74 646.258 526.482C646.258 496.667 644.263 482.507 642.276 468.405C641.954 466.124 641.633 463.846 641.321 461.502C639.25 445.969 638.34 432.121 638.397 421.081Z" fill="url(#paint27_linear_13_315)"/>
<path d="M673.576 428.944C690.052 424.375 709.979 430.155 717.882 433.617L639.135 458.193C643.75 450.347 657.099 433.513 673.576 428.944Z" fill="url(#paint28_linear_13_315)"/>
<path d="M673.576 428.944C690.052 424.375 709.979 430.155 717.882 433.617L639.135 458.193C643.75 450.347 657.099 433.513 673.576 428.944Z" fill="url(#paint29_linear_13_315)"/>
<path d="M683.268 462.866C666.791 467.435 646.865 461.655 638.961 458.193L717.709 433.617C713.094 441.463 699.744 458.297 683.268 462.866Z" fill="url(#paint30_linear_13_315)"/>
<path d="M683.268 462.866C666.791 467.435 646.865 461.655 638.961 458.193L717.709 433.617C713.094 441.463 699.744 458.297 683.268 462.866Z" fill="url(#paint31_linear_13_315)"/>
<path d="M604.306 463.184C587.83 458.615 567.904 464.395 560 467.857L638.748 492.433C634.133 484.587 620.783 467.753 604.306 463.184Z" fill="url(#paint32_linear_13_315)"/>
<path d="M604.306 463.184C587.83 458.615 567.904 464.395 560 467.857L638.748 492.433C634.133 484.587 620.783 467.753 604.306 463.184Z" fill="url(#paint33_linear_13_315)"/>
<path d="M594.614 497.106C611.091 501.675 631.017 495.894 638.921 492.433L560.173 467.857C564.788 475.703 578.138 492.537 594.614 497.106Z" fill="url(#paint34_linear_13_315)"/>
<path d="M594.614 497.106C611.091 501.675 631.017 495.894 638.921 492.433L560.173 467.857C564.788 475.703 578.138 492.537 594.614 497.106Z" fill="url(#paint35_linear_13_315)"/>
<path d="M588.45 382.837L603.223 288.308C603.404 287.149 604.305 286.235 605.462 286.039C606.619 285.842 607.771 286.408 608.325 287.442L623.602 315.937L629.692 304.343C630.163 303.446 631.093 302.885 632.106 302.885C633.119 302.885 634.049 303.446 634.52 304.343L675.749 382.836L588.45 382.837Z" fill="#FFA000"/>
<path d="M639.486 346.014L623.595 315.923L588.45 382.837L639.486 346.014Z" fill="#F57C00"/>
<path d="M675.749 382.837L664.435 312.82C664.264 311.815 663.546 310.989 662.574 310.677C661.602 310.366 660.539 310.625 659.817 311.346L588.45 382.836L627.94 404.981C630.419 406.366 633.439 406.366 635.919 404.981L675.749 382.836V382.837Z" fill="#FFCA28"/>
<path d="M664.434 312.82C664.263 311.815 663.546 310.989 662.574 310.678C661.602 310.366 660.539 310.625 659.817 311.346L645.652 325.547L634.514 304.342C634.042 303.446 633.113 302.884 632.1 302.884C631.087 302.884 630.157 303.446 629.685 304.342L623.596 315.937L608.317 287.442C607.763 286.407 606.609 285.843 605.451 286.041C604.293 286.239 603.395 287.155 603.216 288.315L588.45 382.837H588.403L588.45 382.891L588.839 383.082L659.796 312.043C660.518 311.318 661.584 311.058 662.558 311.368C663.533 311.678 664.251 312.508 664.421 313.516L675.64 382.905L675.749 382.837L664.434 312.82ZM588.58 382.707L603.223 288.984C603.401 287.824 604.302 286.907 605.459 286.709C606.616 286.511 607.77 287.076 608.325 288.111L623.602 316.606L629.691 305.011C630.163 304.115 631.093 303.553 632.106 303.553C633.119 303.553 634.048 304.115 634.52 305.011L645.432 325.765L588.58 382.707Z" fill="white" fill-opacity="0.2"/>
<path opacity="0.2" d="M635.919 404.314C633.439 405.698 630.419 405.698 627.94 404.314L588.546 382.23L588.45 382.837L627.94 404.975C630.419 406.36 633.439 406.36 635.919 404.975L675.749 382.837L675.647 382.209L635.919 404.314Z" fill="#A52714"/>
<path fill-rule="evenodd" clip-rule="evenodd" d="M175.704 301.458C175.575 276.53 173.206 259.542 169.967 251.446L191.48 242.841C196.479 255.339 198.744 276.196 198.873 301.339C199.005 327.008 196.896 358.699 192.207 393.871C191.506 399.13 190.79 404.211 190.077 409.27C185.726 440.145 181.496 470.168 181.496 534.447C181.496 593.082 201.608 665.48 211.735 694.344L189.872 702.015C179.405 672.181 158.326 596.912 158.326 534.447C158.326 468.54 162.737 437.24 167.13 406.067C167.84 401.026 168.55 395.989 169.24 390.809C173.819 356.472 175.829 325.862 175.704 301.458Z" fill="url(#paint36_linear_13_315)"/>
<path d="M97.9398 318.838C61.5184 308.738 17.471 321.517 0 329.168L174.073 383.494C163.871 366.151 134.361 328.939 97.9398 318.838Z" fill="url(#paint37_linear_13_315)"/>
<path d="M97.9398 318.838C61.5184 308.738 17.471 321.517 0 329.168L174.073 383.494C163.871 366.151 134.361 328.939 97.9398 318.838Z" fill="url(#paint38_linear_13_315)"/>
<path d="M76.5153 393.824C112.937 403.924 156.984 391.146 174.455 383.494L0.382446 329.168C10.5845 346.512 40.094 383.724 76.5153 393.824Z" fill="url(#paint39_linear_13_315)"/>
<path d="M76.5153 393.824C112.937 403.924 156.984 391.146 174.455 383.494L0.382446 329.168C10.5845 346.512 40.094 383.724 76.5153 393.824Z" fill="url(#paint40_linear_13_315)"/>
<path d="M251.06 394.526C287.482 384.426 331.529 397.204 349 404.856L174.927 459.182C185.129 441.838 214.639 404.626 251.06 394.526Z" fill="url(#paint41_linear_13_315)"/>
<path d="M251.06 394.526C287.482 384.426 331.529 397.204 349 404.856L174.927 459.182C185.129 441.838 214.639 404.626 251.06 394.526Z" fill="url(#paint42_linear_13_315)"/>
<path d="M272.485 469.511C236.063 479.611 192.016 466.833 174.545 459.182L348.618 404.856C338.415 422.199 308.906 459.411 272.485 469.511Z" fill="url(#paint43_linear_13_315)"/>
<path d="M272.485 469.511C236.063 479.611 192.016 466.833 174.545 459.182L348.618 404.856C338.415 422.199 308.906 459.411 272.485 469.511Z" fill="url(#paint44_linear_13_315)"/>
<path d="M88.1506 214.058L120.806 5.10269C121.205 2.54003 123.198 0.519871 125.755 0.0854752C128.312 -0.348921 130.86 0.900828 132.083 3.18799L165.853 66.176L179.315 40.5465C180.357 38.5647 182.412 37.3239 184.652 37.3239C186.891 37.3239 188.946 38.5647 189.989 40.5465L281.124 214.058L88.1506 214.058Z" fill="#FFA000"/>
<path d="M200.965 132.662L165.838 66.1461L88.1506 214.058L200.965 132.662Z" fill="#F57C00"/>
<path d="M281.125 214.058L256.114 59.2864C255.736 57.0638 254.15 55.2379 252.002 54.5497C249.854 53.8615 247.503 54.4343 245.908 56.0278L88.1506 214.056L175.442 263.008C180.923 266.069 187.599 266.069 193.081 263.008L281.125 214.056V214.058Z" fill="#FFCA28"/>
<path d="M256.113 59.2865C255.736 57.0639 254.149 55.2381 252.001 54.5499C249.853 53.8616 247.502 54.4345 245.907 56.0279L214.596 87.4186L189.974 40.5455C188.932 38.5638 186.877 37.323 184.637 37.323C182.398 37.323 180.343 38.5638 179.3 40.5455L165.839 66.1751L132.067 3.18809C130.842 0.900328 128.291 -0.347397 125.731 0.0902378C123.171 0.527873 121.184 2.5531 120.79 5.11778L88.1499 214.058H88.0447L88.1499 214.179L89.0092 214.601L245.861 57.5678C247.456 55.9656 249.813 55.3897 251.966 56.0759C254.12 56.7621 255.709 58.5951 256.083 60.8241L280.884 214.209L281.125 214.058L256.113 59.2865ZM88.4364 213.772L120.805 6.59545C121.199 4.03077 123.19 2.00555 125.748 1.56791C128.306 1.13028 130.857 2.3776 132.084 4.66577L165.853 67.6538L179.314 42.0242C180.356 40.0425 182.411 38.8017 184.651 38.8017C186.89 38.8017 188.945 40.0425 189.988 42.0242L214.11 87.901L88.4364 213.772Z" fill="white" fill-opacity="0.2"/>
<path opacity="0.2" d="M193.081 261.533C187.599 264.594 180.923 264.594 175.442 261.533L88.3618 212.717L88.1506 214.059L175.442 262.996C180.923 266.057 187.599 266.057 193.081 262.996L281.125 214.059L280.899 212.672L193.081 261.533Z" fill="#A52714"/>
<defs>
<linearGradient id="paint0_linear_13_315" x1="461.158" y1="416.109" x2="461.158" y2="656.337" gradientUnits="userSpaceOnUse">
<stop stop-color="#248900"/>
<stop offset="1" stop-color="#103F00"/>
</linearGradient>
<linearGradient id="paint1_linear_13_315" x1="513.526" y1="452.308" x2="513.526" y2="488.731" gradientUnits="userSpaceOnUse">
<stop stop-color="#238301"/>
<stop offset="1" stop-color="#124300"/>
</linearGradient>
<linearGradient id="paint2_linear_13_315" x1="513.526" y1="452.308" x2="513.526" y2="488.731" gradientUnits="userSpaceOnUse">
<stop stop-color="#238301"/>
<stop offset="1" stop-color="#124300"/>
</linearGradient>
<linearGradient id="paint3_linear_13_315" x1="513.322" y1="496.22" x2="513.322" y2="459.796" gradientUnits="userSpaceOnUse">
<stop stop-color="#238301"/>
<stop offset="1" stop-color="#124300"/>
</linearGradient>
<linearGradient id="paint4_linear_13_315" x1="513.322" y1="496.22" x2="513.322" y2="459.796" gradientUnits="userSpaceOnUse">
<stop stop-color="#238301"/>
<stop offset="1" stop-color="#124300"/>
</linearGradient>
<linearGradient id="paint5_linear_13_315" x1="420.357" y1="492.62" x2="420.357" y2="529.043" gradientUnits="userSpaceOnUse">
<stop stop-color="#238301"/>
<stop offset="1" stop-color="#124300"/>
</linearGradient>
<linearGradient id="paint6_linear_13_315" x1="420.357" y1="492.62" x2="420.357" y2="529.043" gradientUnits="userSpaceOnUse">
<stop stop-color="#238301"/>
<stop offset="1" stop-color="#124300"/>
</linearGradient>
<linearGradient id="paint7_linear_13_315" x1="420.56" y1="536.532" x2="420.56" y2="500.109" gradientUnits="userSpaceOnUse">
<stop stop-color="#238301"/>
<stop offset="1" stop-color="#124300"/>
</linearGradient>
<linearGradient id="paint8_linear_13_315" x1="420.56" y1="536.532" x2="420.56" y2="500.109" gradientUnits="userSpaceOnUse">
<stop stop-color="#238301"/>
<stop offset="1" stop-color="#124300"/>
</linearGradient>
<linearGradient id="paint9_linear_13_315" x1="959.054" y1="437.212" x2="959.054" y2="577.928" gradientUnits="userSpaceOnUse">
<stop stop-color="#248900"/>
<stop offset="1" stop-color="#103F00"/>
</linearGradient>
<linearGradient id="paint10_linear_13_315" x1="989.728" y1="458.416" x2="989.728" y2="479.752" gradientUnits="userSpaceOnUse">
<stop stop-color="#238301"/>
<stop offset="1" stop-color="#124300"/>
</linearGradient>
<linearGradient id="paint11_linear_13_315" x1="989.728" y1="458.416" x2="989.728" y2="479.752" gradientUnits="userSpaceOnUse">
<stop stop-color="#238301"/>
<stop offset="1" stop-color="#124300"/>
</linearGradient>
<linearGradient id="paint12_linear_13_315" x1="989.609" y1="484.138" x2="989.609" y2="462.803" gradientUnits="userSpaceOnUse">
<stop stop-color="#238301"/>
<stop offset="1" stop-color="#124300"/>
</linearGradient>
<linearGradient id="paint13_linear_13_315" x1="989.609" y1="484.138" x2="989.609" y2="462.803" gradientUnits="userSpaceOnUse">
<stop stop-color="#238301"/>
<stop offset="1" stop-color="#124300"/>
</linearGradient>
<linearGradient id="paint14_linear_13_315" x1="935.154" y1="482.029" x2="935.154" y2="503.365" gradientUnits="userSpaceOnUse">
<stop stop-color="#238301"/>
<stop offset="1" stop-color="#124300"/>
</linearGradient>
<linearGradient id="paint15_linear_13_315" x1="935.154" y1="482.029" x2="935.154" y2="503.365" gradientUnits="userSpaceOnUse">
<stop stop-color="#238301"/>
<stop offset="1" stop-color="#124300"/>
</linearGradient>
<linearGradient id="paint16_linear_13_315" x1="935.273" y1="507.752" x2="935.273" y2="486.416" gradientUnits="userSpaceOnUse">
<stop stop-color="#238301"/>
<stop offset="1" stop-color="#124300"/>
</linearGradient>
<linearGradient id="paint17_linear_13_315" x1="935.273" y1="507.752" x2="935.273" y2="486.416" gradientUnits="userSpaceOnUse">
<stop stop-color="#238301"/>
<stop offset="1" stop-color="#124300"/>
</linearGradient>
<linearGradient id="paint18_linear_13_315" x1="850.054" y1="437.212" x2="850.054" y2="577.928" gradientUnits="userSpaceOnUse">
<stop stop-color="#248900"/>
<stop offset="1" stop-color="#103F00"/>
</linearGradient>
<linearGradient id="paint19_linear_13_315" x1="880.728" y1="458.416" x2="880.728" y2="479.752" gradientUnits="userSpaceOnUse">
<stop stop-color="#238301"/>
<stop offset="1" stop-color="#124300"/>
</linearGradient>
<linearGradient id="paint20_linear_13_315" x1="880.728" y1="458.416" x2="880.728" y2="479.752" gradientUnits="userSpaceOnUse">
<stop stop-color="#238301"/>
<stop offset="1" stop-color="#124300"/>
</linearGradient>
<linearGradient id="paint21_linear_13_315" x1="880.609" y1="484.138" x2="880.609" y2="462.803" gradientUnits="userSpaceOnUse">
<stop stop-color="#238301"/>
<stop offset="1" stop-color="#124300"/>
</linearGradient>
<linearGradient id="paint22_linear_13_315" x1="880.609" y1="484.138" x2="880.609" y2="462.803" gradientUnits="userSpaceOnUse">
<stop stop-color="#238301"/>
<stop offset="1" stop-color="#124300"/>
</linearGradient>
<linearGradient id="paint23_linear_13_315" x1="826.154" y1="482.029" x2="826.154" y2="503.365" gradientUnits="userSpaceOnUse">
<stop stop-color="#238301"/>
<stop offset="1" stop-color="#124300"/>
</linearGradient>
<linearGradient id="paint24_linear_13_315" x1="826.154" y1="482.029" x2="826.154" y2="503.365" gradientUnits="userSpaceOnUse">
<stop stop-color="#238301"/>
<stop offset="1" stop-color="#124300"/>
</linearGradient>
<linearGradient id="paint25_linear_13_315" x1="826.273" y1="507.752" x2="826.273" y2="486.416" gradientUnits="userSpaceOnUse">
<stop stop-color="#238301"/>
<stop offset="1" stop-color="#124300"/>
</linearGradient>
<linearGradient id="paint26_linear_13_315" x1="826.273" y1="507.752" x2="826.273" y2="486.416" gradientUnits="userSpaceOnUse">
<stop stop-color="#238301"/>
<stop offset="1" stop-color="#124300"/>
</linearGradient>
<linearGradient id="paint27_linear_13_315" x1="634.03" y1="396.51" x2="634.03" y2="600.552" gradientUnits="userSpaceOnUse">
<stop stop-color="#248900"/>
<stop offset="1" stop-color="#103F00"/>
</linearGradient>
<linearGradient id="paint28_linear_13_315" x1="678.508" y1="427.256" x2="678.508" y2="458.193" gradientUnits="userSpaceOnUse">
<stop stop-color="#238301"/>
<stop offset="1" stop-color="#124300"/>
</linearGradient>
<linearGradient id="paint29_linear_13_315" x1="678.508" y1="427.256" x2="678.508" y2="458.193" gradientUnits="userSpaceOnUse">
<stop stop-color="#238301"/>
<stop offset="1" stop-color="#124300"/>
</linearGradient>
<linearGradient id="paint30_linear_13_315" x1="678.335" y1="464.554" x2="678.335" y2="433.617" gradientUnits="userSpaceOnUse">
<stop stop-color="#238301"/>
<stop offset="1" stop-color="#124300"/>
</linearGradient>
<linearGradient id="paint31_linear_13_315" x1="678.335" y1="464.554" x2="678.335" y2="433.617" gradientUnits="userSpaceOnUse">
<stop stop-color="#238301"/>
<stop offset="1" stop-color="#124300"/>
</linearGradient>
<linearGradient id="paint32_linear_13_315" x1="599.374" y1="461.496" x2="599.374" y2="492.433" gradientUnits="userSpaceOnUse">
<stop stop-color="#238301"/>
<stop offset="1" stop-color="#124300"/>
</linearGradient>
<linearGradient id="paint33_linear_13_315" x1="599.374" y1="461.496" x2="599.374" y2="492.433" gradientUnits="userSpaceOnUse">
<stop stop-color="#238301"/>
<stop offset="1" stop-color="#124300"/>
</linearGradient>
<linearGradient id="paint34_linear_13_315" x1="599.547" y1="498.794" x2="599.547" y2="467.857" gradientUnits="userSpaceOnUse">
<stop stop-color="#238301"/>
<stop offset="1" stop-color="#124300"/>
</linearGradient>
<linearGradient id="paint35_linear_13_315" x1="599.547" y1="498.794" x2="599.547" y2="467.857" gradientUnits="userSpaceOnUse">
<stop stop-color="#238301"/>
<stop offset="1" stop-color="#124300"/>
</linearGradient>
<linearGradient id="paint36_linear_13_315" x1="185.357" y1="247.143" x2="185.357" y2="698.179" gradientUnits="userSpaceOnUse">
<stop stop-color="#248900"/>
<stop offset="1" stop-color="#103F00"/>
</linearGradient>
<linearGradient id="paint37_linear_13_315" x1="87.0363" y1="315.107" x2="87.0363" y2="383.494" gradientUnits="userSpaceOnUse">
<stop stop-color="#238301"/>
<stop offset="1" stop-color="#124300"/>
</linearGradient>
<linearGradient id="paint38_linear_13_315" x1="87.0363" y1="315.107" x2="87.0363" y2="383.494" gradientUnits="userSpaceOnUse">
<stop stop-color="#238301"/>
<stop offset="1" stop-color="#124300"/>
</linearGradient>
<linearGradient id="paint39_linear_13_315" x1="87.4188" y1="397.555" x2="87.4188" y2="329.168" gradientUnits="userSpaceOnUse">
<stop stop-color="#238301"/>
<stop offset="1" stop-color="#124300"/>
</linearGradient>
<linearGradient id="paint40_linear_13_315" x1="87.4188" y1="397.555" x2="87.4188" y2="329.168" gradientUnits="userSpaceOnUse">
<stop stop-color="#238301"/>
<stop offset="1" stop-color="#124300"/>
</linearGradient>
<linearGradient id="paint41_linear_13_315" x1="261.964" y1="390.795" x2="261.964" y2="459.182" gradientUnits="userSpaceOnUse">
<stop stop-color="#238301"/>
<stop offset="1" stop-color="#124300"/>
</linearGradient>
<linearGradient id="paint42_linear_13_315" x1="261.964" y1="390.795" x2="261.964" y2="459.182" gradientUnits="userSpaceOnUse">
<stop stop-color="#238301"/>
<stop offset="1" stop-color="#124300"/>
</linearGradient>
<linearGradient id="paint43_linear_13_315" x1="261.581" y1="473.242" x2="261.581" y2="404.856" gradientUnits="userSpaceOnUse">
<stop stop-color="#238301"/>
<stop offset="1" stop-color="#124300"/>
</linearGradient>
<linearGradient id="paint44_linear_13_315" x1="261.581" y1="473.242" x2="261.581" y2="404.856" gradientUnits="userSpaceOnUse">
<stop stop-color="#238301"/>
<stop offset="1" stop-color="#124300"/>
</linearGradient>
</defs>
</svg>
