<svg width="415" height="122" viewBox="0 0 415 122" fill="none" xmlns="http://www.w3.org/2000/svg">
<rect width="415" height="122" rx="61" fill="url(#paint0_linear_13_682)"/>
<path d="M144.847 62.6787C146.329 63.5116 147.736 64.4669 149.069 65.5447C150.403 66.5735 151.563 67.7983 152.551 69.2191C153.687 70.7868 154.403 72.526 154.699 74.4366C154.995 76.3473 154.872 78.1845 154.329 79.9482C153.736 81.7608 152.847 83.353 151.662 84.7248C150.526 86.0966 149.168 87.3213 147.588 88.3991C146.057 89.428 144.378 90.2118 142.551 90.7507C140.773 91.3386 138.946 91.7061 137.07 91.853C135.193 92.049 133.317 92.049 131.44 91.853C129.563 91.6571 127.761 91.2896 126.033 90.7507C124.601 90.2608 123.539 89.4035 122.847 88.1787C122.156 86.9539 121.983 85.5821 122.329 84.0634C122.477 83.3775 122.773 82.7652 123.218 82.2262C123.712 81.6873 124.255 81.2464 124.847 80.9035C125.489 80.5605 126.156 80.3401 126.847 80.2421C127.539 80.1441 128.23 80.1931 128.921 80.3891C129.86 80.683 130.946 80.928 132.181 81.1239C133.465 81.3199 134.749 81.3934 136.033 81.3444C137.366 81.2464 138.6 81.0015 139.736 80.6095C140.921 80.1686 141.884 79.5317 142.625 78.6989C143.316 77.817 143.489 76.8127 143.144 75.6859C142.847 74.5591 141.909 73.5058 140.329 72.526C138.6 71.4482 136.798 70.4194 134.921 69.4395C133.094 68.4597 131.317 67.3819 129.588 66.2061C127.909 65.0303 126.378 63.683 124.996 62.1643C123.613 60.5966 122.526 58.7104 121.736 56.5058C121.094 54.6442 120.872 52.807 121.07 50.9943C121.267 49.1326 121.761 47.3935 122.551 45.7767C123.391 44.111 124.452 42.5923 125.736 41.2206C127.02 39.7998 128.428 38.575 129.959 37.5462C132.921 35.5376 136.131 34.3863 139.588 34.0923C143.045 33.7494 146.378 34.3618 149.588 35.9295C150.23 36.2235 150.748 36.6644 151.144 37.2523C151.588 37.8402 151.884 38.477 152.032 39.1629C152.181 39.8488 152.205 40.5592 152.106 41.294C152.008 42.0289 151.785 42.6903 151.44 43.2782C150.748 44.601 149.687 45.3603 148.255 45.5563C146.823 45.7522 145.44 45.6053 144.107 45.1154C142.378 44.5275 140.749 44.405 139.218 44.7479C137.391 45.1889 135.884 45.9237 134.699 46.9525C133.563 47.9814 132.823 49.1326 132.477 50.4064C132.181 51.6312 132.304 52.9295 132.847 54.3012C133.391 55.624 134.452 56.8488 136.033 57.9756C137.465 58.9064 138.921 59.7148 140.403 60.4006C141.934 61.0865 143.415 61.8459 144.847 62.6787Z" fill="#804100"/>
<path d="M162.279 47.9814C160.797 47.8834 159.563 47.369 158.575 46.4381C157.588 45.4583 157.044 44.209 156.946 42.6903C156.946 42.0044 157.094 41.343 157.39 40.7062C157.686 40.0693 158.081 39.5059 158.575 39.016C159.069 38.477 159.637 38.0851 160.279 37.8402C160.921 37.5462 161.587 37.4237 162.279 37.4727C170.229 37.9136 178.155 37.8402 186.056 37.2523C186.797 37.2033 187.488 37.3258 188.13 37.6197C188.772 37.9136 189.316 38.3301 189.76 38.869C190.254 39.3589 190.649 39.9468 190.945 40.6327C191.242 41.2695 191.39 41.9064 191.39 42.5433C191.439 43.2782 191.316 43.9641 191.019 44.601C190.723 45.2378 190.328 45.8012 189.834 46.2912C189.34 46.7321 188.748 47.0995 188.056 47.3935C187.414 47.6384 186.748 47.7854 186.056 47.8344C183.291 48.0793 180.501 48.2263 177.686 48.2753C176.748 59.9842 176.007 71.7666 175.464 83.6225C175.365 85.1902 174.822 86.464 173.834 87.4438C172.847 88.3746 171.612 88.8891 170.131 88.987C169.439 89.036 168.748 88.9136 168.057 88.6196C167.415 88.3257 166.847 87.9337 166.353 87.4438C165.859 86.9539 165.464 86.3905 165.168 85.7536C164.871 85.0677 164.748 84.3574 164.797 83.6225C165.242 71.8646 165.982 60.0577 167.02 48.2018C165.489 48.2018 163.908 48.1283 162.279 47.9814Z" fill="#804100"/>
<path d="M212.71 45.7033C215.377 51.1903 217.821 56.7508 220.043 62.3848C222.266 68.0188 224.241 73.7997 225.969 79.7277C226.364 81.1484 226.191 82.4712 225.451 83.696C224.71 84.9208 223.624 85.7781 222.191 86.268C221.5 86.513 220.784 86.5865 220.043 86.4885C219.352 86.3415 218.71 86.0966 218.117 85.7536C217.525 85.3617 217.006 84.8963 216.562 84.3574C216.117 83.8185 215.796 83.2061 215.599 82.5202C215.303 81.4914 214.982 80.4871 214.636 79.5072C214.34 78.4784 214.043 77.4496 213.747 76.4208C213.5 76.5188 213.253 76.6412 213.006 76.7882C212.759 76.8862 212.513 76.9842 212.266 77.0822C209.994 77.719 207.722 78.3559 205.451 78.9928C203.229 79.5807 201.006 80.2176 198.784 80.9035C198.686 81.5404 198.562 82.1773 198.414 82.8141C198.315 83.402 198.216 84.0144 198.118 84.6513C197.969 85.3862 197.673 86.0231 197.229 86.562C196.784 87.1009 196.241 87.5418 195.599 87.8847C194.957 88.1787 194.266 88.3747 193.525 88.4726C192.784 88.5706 192.093 88.5461 191.451 88.3991C189.97 88.0072 188.908 87.1744 188.266 85.9006C187.673 84.5778 187.5 83.2306 187.747 81.8588C188.34 78.3314 188.957 74.8531 189.599 71.4237C190.291 67.9943 190.982 64.5649 191.673 61.1355C192.266 58.098 192.858 55.0851 193.451 52.0966C194.093 49.0592 195.031 46.1197 196.266 43.2782C196.661 42.2984 197.105 41.3675 197.599 40.4857C198.142 39.5549 198.908 38.82 199.895 38.2811C201.969 37.0563 204.142 36.9093 206.414 37.8402C207.253 38.1831 207.969 38.6485 208.562 39.2364C209.204 39.8243 209.772 40.4612 210.266 41.1471C210.759 41.8329 211.179 42.5678 211.525 43.3517C211.92 44.1355 212.315 44.9194 212.71 45.7033ZM209.377 66.7205C209.673 66.6225 209.945 66.5735 210.192 66.5735C209.352 64.3199 208.439 62.0908 207.451 59.8862C206.513 57.6816 205.476 55.428 204.34 53.1254C203.698 55.526 203.155 57.9511 202.71 60.4006C202.266 62.8502 201.797 65.3243 201.303 67.8228C201.253 68.0678 201.204 68.2882 201.155 68.4842C201.155 68.6802 201.13 68.8761 201.081 69.0721C202.463 68.6802 203.846 68.2882 205.229 67.8963C206.611 67.5044 207.994 67.1124 209.377 66.7205Z" fill="#804100"/>
<path d="M238.885 78.9193C238.885 79.5072 238.885 80.1196 238.885 80.7565C238.935 81.3444 238.959 81.9568 238.959 82.5937C239.009 84.1124 238.49 85.3617 237.404 86.3415C236.317 87.3213 235.058 87.8357 233.626 87.8847C232.885 87.9337 232.194 87.8112 231.552 87.5173C230.91 87.2234 230.342 86.8314 229.848 86.3415C229.404 85.8516 229.033 85.2882 228.737 84.6513C228.441 83.9654 228.293 83.2796 228.293 82.5937C228.194 75.343 227.972 68.1413 227.626 60.9885C227.33 53.8358 226.984 46.6341 226.589 39.3834C226.54 38.6485 226.663 37.9626 226.959 37.3258C227.256 36.6889 227.651 36.15 228.145 35.709C228.688 35.2191 229.28 34.8517 229.922 34.6067C230.564 34.3128 231.231 34.1413 231.922 34.0923C232.614 34.0433 233.231 34.1413 233.774 34.3863C234.367 34.5822 234.885 34.8762 235.33 35.2681C237.305 35.1211 239.379 35.2191 241.552 35.5621C243.725 35.856 245.823 36.4194 247.848 37.2523C249.626 37.9381 251.231 38.869 252.663 40.0448C254.095 41.2206 255.305 42.5678 256.292 44.0865C257.329 45.5563 258.095 47.173 258.589 48.9367C259.132 50.7004 259.379 52.5375 259.329 54.4482C259.231 57.8286 258.243 60.964 256.367 63.8545C254.539 66.696 252.243 69.1701 249.478 71.2767C250.218 71.5217 250.959 71.7421 251.7 71.9381C252.441 72.0851 253.206 72.2565 253.996 72.4525C255.428 72.8444 256.465 73.7018 257.107 75.0245C257.799 76.2983 257.996 77.6211 257.7 78.9928C257.552 79.7277 257.255 80.3646 256.811 80.9035C256.366 81.4424 255.823 81.8833 255.181 82.2262C254.589 82.5202 253.922 82.7162 253.181 82.8141C252.49 82.9121 251.799 82.8876 251.107 82.7407C249.033 82.2017 246.984 81.6384 244.959 81.0505C242.984 80.4136 240.959 79.7032 238.885 78.9193ZM245.478 60.8416C246.268 60.0087 246.934 59.0044 247.478 57.8286C248.021 56.6038 248.342 55.379 248.441 54.1543C248.539 52.9295 248.342 51.7537 247.848 50.6269C247.354 49.5001 246.49 48.5692 245.255 47.8344C244.268 47.2465 243.132 46.8301 241.848 46.5851C240.564 46.2912 239.206 46.0217 237.774 45.7767H237.7C237.848 49.0102 237.996 52.2436 238.144 55.477C238.293 58.6614 238.416 61.8704 238.515 65.1038C239.799 64.7119 241.033 64.173 242.218 63.4871C243.453 62.7522 244.539 61.8704 245.478 60.8416Z" fill="#804100"/>
<path d="M266.879 47.9814C265.397 47.8834 264.163 47.369 263.175 46.4381C262.187 45.4583 261.644 44.209 261.545 42.6903C261.545 42.0044 261.693 41.343 261.99 40.7062C262.286 40.0693 262.681 39.5059 263.175 39.016C263.669 38.477 264.237 38.0851 264.879 37.8402C265.521 37.5462 266.187 37.4237 266.879 37.4727C274.829 37.9136 282.755 37.8402 290.656 37.2523C291.397 37.2033 292.088 37.3258 292.73 37.6197C293.372 37.9136 293.915 38.3301 294.36 38.869C294.854 39.3589 295.249 39.9468 295.545 40.6327C295.841 41.2695 295.989 41.9064 295.989 42.5433C296.039 43.2782 295.915 43.9641 295.619 44.601C295.323 45.2378 294.928 45.8012 294.434 46.2912C293.94 46.7321 293.347 47.0995 292.656 47.3935C292.014 47.6384 291.347 47.7854 290.656 47.8344C287.891 48.0793 285.101 48.2263 282.286 48.2753C281.348 59.9842 280.607 71.7666 280.064 83.6225C279.965 85.1902 279.422 86.464 278.434 87.4438C277.446 88.3746 276.212 88.8891 274.73 88.987C274.039 89.036 273.348 88.9136 272.656 88.6196C272.014 88.3257 271.446 87.9337 270.953 87.4438C270.459 86.9539 270.064 86.3905 269.767 85.7536C269.471 85.0677 269.348 84.3574 269.397 83.6225C269.841 71.8646 270.582 60.0577 271.619 48.2018C270.088 48.2018 268.508 48.1283 266.879 47.9814Z" fill="#804100"/>
<defs>
<linearGradient id="paint0_linear_13_682" x1="207.5" y1="0" x2="207.5" y2="122" gradientUnits="userSpaceOnUse">
<stop stop-color="#FFCA28"/>
<stop offset="1" stop-color="#FF7A00"/>
</linearGradient>
</defs>
</svg>
