<svg width="1590" height="474" viewBox="0 0 1590 474" fill="none" xmlns="http://www.w3.org/2000/svg">
<path d="M801.104 100.589C810.684 102.774 819.125 108.414 824.818 116.431C830.51 124.449 833.055 134.284 831.967 144.059C830.879 153.835 826.235 162.868 818.92 169.435C811.605 176.002 802.131 179.644 792.306 179.666H682.319C669.921 179.678 657.961 175.078 648.76 166.759C639.559 158.44 633.774 146.996 632.528 134.647C631.282 122.298 634.664 109.926 642.017 99.9335C649.37 89.9406 660.17 83.0393 672.32 80.5695V79.5685C672.314 74.2746 673.706 69.0732 676.355 64.4913C679.003 59.9094 682.815 56.1099 687.403 53.4779C691.992 50.846 697.193 49.475 702.481 49.5041C707.769 49.5331 712.956 50.9612 717.515 53.6434C724.531 46.7033 733.448 42.0055 743.135 40.1458C752.822 38.2861 762.842 39.3484 771.925 43.1979C781.008 47.0474 788.744 53.5106 794.153 61.7679C799.561 70.0252 802.399 79.7045 802.304 89.5782C802.304 93.3819 801.904 96.9854 801.104 100.589Z" fill="white" fill-opacity="0.25"/>
<path d="M142.397 215.842C147.751 217.064 152.469 220.218 155.651 224.7C158.832 229.183 160.255 234.682 159.647 240.148C159.039 245.614 156.443 250.664 152.354 254.336C148.266 258.008 142.971 260.044 137.479 260.056H76.0043C69.0747 260.063 62.3897 257.491 57.2471 252.84C52.1045 248.188 48.8712 241.789 48.1747 234.885C47.4783 227.981 49.3685 221.063 53.4784 215.476C57.5883 209.889 63.6247 206.03 70.4157 204.649V204.089C70.4122 201.129 71.1901 198.221 72.6706 195.659C74.151 193.098 76.2815 190.973 78.846 189.502C81.4105 188.03 84.3179 187.263 87.2735 187.28C90.2291 187.296 93.1279 188.094 95.6761 189.594C99.5976 185.714 104.582 183.087 109.996 182.047C115.41 181.008 121.011 181.601 126.088 183.754C131.164 185.906 135.488 189.52 138.511 194.137C141.534 198.754 143.12 204.165 143.067 209.686C143.067 211.813 142.844 213.828 142.397 215.842Z" fill="white" fill-opacity="0.25"/>
<path d="M1463.47 265.228C1473.76 267.581 1482.82 273.651 1488.93 282.28C1495.05 290.909 1497.78 301.494 1496.61 312.016C1495.44 322.538 1490.46 332.26 1482.6 339.329C1474.75 346.397 1464.57 350.316 1454.02 350.34H1335.93C1322.62 350.353 1309.77 345.402 1299.9 336.448C1290.02 327.495 1283.8 315.176 1282.47 301.885C1281.13 288.594 1284.76 275.279 1292.66 264.523C1300.55 253.768 1312.15 246.34 1325.19 243.681V242.604C1325.19 236.906 1326.68 231.308 1329.52 226.376C1332.37 221.445 1336.46 217.355 1341.39 214.522C1346.31 211.69 1351.9 210.214 1357.58 210.245C1363.26 210.277 1368.82 211.814 1373.72 214.7C1381.25 207.231 1390.83 202.174 1401.23 200.173C1411.63 198.171 1422.39 199.315 1432.14 203.458C1441.89 207.601 1450.2 214.558 1456.01 223.445C1461.82 232.332 1464.86 242.75 1464.76 253.378C1464.76 257.471 1464.33 261.35 1463.47 265.228Z" fill="white" fill-opacity="0.25"/>
<path d="M953.234 233.078C958.541 234.285 963.218 237.398 966.371 241.825C969.525 246.252 970.935 251.682 970.332 257.079C969.729 262.477 967.156 267.464 963.104 271.09C959.051 274.716 953.802 276.727 948.359 276.739H887.423C880.555 276.746 873.928 274.206 868.831 269.613C863.733 265.02 860.528 258.701 859.838 251.882C859.148 245.064 861.021 238.234 865.095 232.716C869.169 227.199 875.152 223.388 881.884 222.025V221.472C881.88 218.549 882.652 215.677 884.119 213.147C885.586 210.617 887.698 208.52 890.24 207.066C892.782 205.613 895.664 204.856 898.594 204.872C901.524 204.888 904.397 205.677 906.923 207.158C910.81 203.326 915.75 200.732 921.117 199.705C926.484 198.678 932.035 199.265 937.067 201.39C942.1 203.516 946.386 207.084 949.382 211.644C952.379 216.203 953.95 221.547 953.898 226.999C953.898 229.099 953.677 231.088 953.234 233.078Z" fill="white" fill-opacity="0.5"/>
<path d="M543.002 206.84C546.947 207.741 550.424 210.067 552.768 213.373C555.112 216.679 556.16 220.734 555.712 224.765C555.264 228.797 553.352 232.521 550.339 235.229C547.326 237.937 543.425 239.439 539.378 239.448H494.081C488.975 239.453 484.049 237.556 480.26 234.126C476.471 230.695 474.088 225.976 473.575 220.884C473.062 215.792 474.455 210.691 477.483 206.57C480.512 202.449 484.959 199.604 489.963 198.585V198.172C489.961 195.989 490.534 193.845 491.625 191.955C492.716 190.066 494.285 188.499 496.175 187.414C498.065 186.329 500.207 185.763 502.385 185.775C504.563 185.787 506.699 186.376 508.576 187.482C511.466 184.62 515.138 182.683 519.128 181.916C523.117 181.15 527.244 181.588 530.985 183.175C534.725 184.762 537.912 187.427 540.139 190.832C542.366 194.237 543.535 198.229 543.496 202.3C543.496 203.868 543.331 205.354 543.002 206.84Z" fill="white" fill-opacity="0.5"/>
</svg>
